<?xml version="1.0" encoding="utf-8"?>
<!-- Generator: Adobe Illustrator 22.0.1, SVG Export Plug-In . SVG Version: 6.00 Build 0)  -->
<svg version="1.1" id="Layer_1" xmlns="http://www.w3.org/2000/svg" xmlns:xlink="http://www.w3.org/1999/xlink" x="0px" y="0px"
	 viewBox="0 0 400 140" style="enable-background:new 0 0 400 140;" xml:space="preserve">
<style type="text/css">
	.st0{fill:#0083FD;stroke:#000000;stroke-width:2;stroke-miterlimit:10;}
	.st1{opacity:0.1;fill:none;stroke:#013F4F;stroke-width:2;stroke-linecap:round;stroke-linejoin:round;stroke-miterlimit:10;}
	.st2{opacity:0.1;}
	.st3{fill:none;stroke:#013F4F;stroke-width:2;stroke-linecap:round;stroke-linejoin:round;stroke-miterlimit:10;}
	.st4{fill:none;stroke:#0083FD;stroke-width:2;stroke-miterlimit:10;}
	.st5{fill:#0083FD;stroke:#0083FD;stroke-width:0.75;stroke-miterlimit:10;}
	.st6{fill:#FFFFFF;}
	.st7{fill:#FFFFFF;stroke:#000000;stroke-width:2;stroke-linecap:round;stroke-miterlimit:10;}
	.st8{fill:none;stroke:#000000;stroke-width:2;stroke-linecap:round;stroke-miterlimit:10;}
</style>
<path class="st0" d="M145.4,102.8v9.3c0,0.4,0.4,0.8,0.8,0.8h108.6c0.4,0,0.8-0.4,0.8-0.8v-9.3"/>
<path class="st0" d="M146.4,103.5c-0.6,0-1-0.4-1-1v-70c0-0.6,0.4-1,1-1h108.1c0.6,0,1,0.4,1,1v70c0,0.6-0.4,1-1,1"/>
<path class="st1" d="M337.8,99.2c-6.6,0-12.1,4.7-13.4,10.9c-0.4-0.1-0.9-0.1-1.4-0.1c-4.6,0-8.3,3.7-8.3,8.3c0,4.5,3.5,8.1,7.9,8.3
	v0h15.1c7.6,0,13.7-6.1,13.7-13.7S345.4,99.2,337.8,99.2z"/>
<path class="st1" d="M45.8,68.2c0.6-5.4,5.2-9.5,10.7-9.5c3.9,0,7.3,2,9.2,5.1c0.8-0.3,1.7-0.4,2.6-0.4c4.7,0,8.5,3.8,8.5,8.5
	c0,4.7-3.8,8.5-8.5,8.5H47.2c-3.4,0-6.1-2.7-6.1-6.1C41.1,71.3,43.1,68.8,45.8,68.2z"/>
<g class="st2">
	<line class="st3" x1="23.8" y1="107.7" x2="23.8" y2="112.7"/>
	<line class="st3" x1="26.3" y1="110.2" x2="21.3" y2="110.2"/>
</g>
<g class="st2">
	<line class="st3" x1="291.8" y1="97.2" x2="291.8" y2="102.2"/>
	<line class="st3" x1="294.3" y1="99.7" x2="289.3" y2="99.7"/>
</g>
<polyline class="st1" points="351.5,64.1 353.6,60.2 358.2,62 360.7,57.1 "/>
<polyline class="st1" points="39.8,26.7 44.1,27.9 43.3,32.8 48.6,34.2 "/>
<polyline class="st1" points="182.9,9.9 181.3,14.1 176.5,12.8 174.6,18 "/>
<g class="st2">
	<line class="st3" x1="275.2" y1="23.7" x2="275.2" y2="28.7"/>
	<line class="st3" x1="277.7" y1="26.2" x2="272.7" y2="26.2"/>
</g>
<polygon class="st1" points="95.6,70.6 92.4,74 95.5,76.9 98.6,73.9 "/>
<polygon class="st1" points="332.4,21.8 329.2,25.2 332.3,28.1 335.5,25.1 "/>
<g>
	<path class="st4" d="M81.9,28.2l2.1,9.3c0.2,0.7,0.7,1.3,1.4,1.5l9.1,2.8c0.7,0.2,1.4,0,1.9-0.4l7-6.5c0.5-0.5,0.7-1.2,0.6-1.9
		l-2.1-9.3c-0.2-0.7-0.7-1.3-1.4-1.5l-9.1-2.8c-0.7-0.2-1.4,0-1.9,0.4l-7,6.5C82,26.8,81.8,27.5,81.9,28.2z"/>
	<path class="st4" d="M81.7,27.1L92,29.8c0.5,0.1,1,0,1.4-0.3l8.3-7"/>
	<line class="st4" x1="92.7" y1="29.8" x2="95.5" y2="42"/>
</g>
<g>
	<path class="st4" d="M286.7,63.4l15-16.7c1.1-1.2,3.1-0.3,3,1.3l-1.8,23.2"/>
	<path class="st5" d="M294.9,65.4L294.9,65.4c0.2,0.1,0.4,0.2,0.6,0.3c4.9,2.3,7.1,5,6.9,5.6c-0.3,0.4-3.3,0.6-8.1-1.5
		c-0.2-0.1-0.4-0.2-0.6-0.3c-4.9-2.3-7.1-5-6.9-5.6C287.1,63.4,290.1,63.2,294.9,65.4 M295.4,64.3c-4.6-2.1-8.9-2.5-9.6-1
		c-0.8,1.6,2.6,4.8,7.5,7.2c0.2,0.1,0.4,0.2,0.6,0.3c4.6,2.1,8.9,2.5,9.6,1c0.8-1.6-2.6-4.8-7.5-7.2
		C295.8,64.5,295.6,64.4,295.4,64.3L295.4,64.3z"/>
</g>
<circle class="st4" cx="116.4" cy="110.6" r="9.5"/>
<g>
	<rect x="154.3" y="41.1" class="st6" width="92.3" height="52.7"/>
	<path d="M245.6,42.1v50.7h-90.3V42.1H245.6 M246.6,40.1h-92.3c-0.6,0-1,0.4-1,1v52.7c0,0.6,0.4,1,1,1h92.3c0.6,0,1-0.4,1-1V41.1
		C247.6,40.6,247.2,40.1,246.6,40.1L246.6,40.1z"/>
</g>
<polyline class="st7" points="183.5,103.8 188.1,107.4 210,107.4 215,103.8 "/>
<g>
	<g>
		<g>
			<path class="st8" d="M186.4,63.3c1.4-5.6,7-9.8,13.6-9.8c7.7,0,14,5.6,14,12.5"/>
			<polyline class="st8" points="219,61.9 214.3,66.5 207.6,64.8 			"/>
		</g>
		<g>
			<path class="st8" d="M214.5,73.2c-1.4,5.6-7,9.8-13.6,9.8c-7.7,0-14-5.6-14-12.5"/>
			<polyline class="st8" points="181.9,74.5 186.6,69.9 193.3,71.6 			"/>
		</g>
	</g>
</g>
<line class="st0" x1="254.5" y1="103.5" x2="146.4" y2="103.5"/>
</svg>
