<?xml version="1.0" encoding="utf-8"?>
<!-- Generator: Adobe Illustrator 22.0.1, SVG Export Plug-In . SVG Version: 6.00 Build 0)  -->
<svg version="1.1" id="Layer_1" xmlns="http://www.w3.org/2000/svg" xmlns:xlink="http://www.w3.org/1999/xlink" x="0px" y="0px"
	 viewBox="0 0 400 140" style="enable-background:new 0 0 400 140;" xml:space="preserve">
<style type="text/css">
	.st0{opacity:0.1;fill:none;stroke:#013F4F;stroke-width:2;stroke-linecap:round;stroke-linejoin:round;stroke-miterlimit:10;}
	.st1{opacity:0.1;}
	.st2{fill:none;stroke:#013F4F;stroke-width:2;stroke-linecap:round;stroke-linejoin:round;stroke-miterlimit:10;}
	.st3{fill:none;stroke:#0083FD;stroke-width:2;stroke-miterlimit:10;}
	.st4{fill:#0083FD;stroke:#000000;stroke-width:2;stroke-linecap:round;stroke-linejoin:round;stroke-miterlimit:10;}
	.st5{fill:none;stroke:#000000;stroke-width:2;stroke-linecap:round;stroke-linejoin:round;stroke-miterlimit:10;}
	.st6{fill:#FFFFFF;}
	.st7{fill:none;stroke:#000000;stroke-width:2;stroke-linecap:round;stroke-miterlimit:10;}
</style>
<path class="st0" d="M349.1,93.7c-0.6-5.4-5.2-9.5-10.7-9.5c-3.9,0-7.3,2-9.2,5.1c-0.8-0.3-1.7-0.4-2.6-0.4c-4.7,0-8.5,3.8-8.5,8.5
	c0,4.7,3.8,8.5,8.5,8.5h21.1c3.4,0,6.1-2.7,6.1-6.1C353.9,96.7,351.9,94.3,349.1,93.7z"/>
<g class="st1">
	<line class="st2" x1="34.7" y1="90.9" x2="34.7" y2="95.9"/>
	<line class="st2" x1="37.2" y1="93.4" x2="32.2" y2="93.4"/>
</g>
<g class="st1">
	<line class="st2" x1="371.1" y1="16.2" x2="371.1" y2="21.2"/>
	<line class="st2" x1="373.6" y1="18.7" x2="368.6" y2="18.7"/>
</g>
<polyline class="st0" points="255.9,99.2 251.8,100.9 253.1,105.6 248,107.6 "/>
<polyline class="st0" points="134.2,62.2 138.3,63.9 137,68.7 142.1,70.6 "/>
<polygon class="st0" points="354.7,49.3 351.6,52.6 354.6,55.6 357.8,52.6 "/>
<polygon class="st0" points="53.9,19.5 50.7,22.9 53.8,25.8 56.9,22.8 "/>
<polygon class="st0" points="95.5,111.4 92.3,114.7 95.4,117.6 98.6,114.6 "/>
<path class="st0" d="M61.4,59.5C62,54.2,66.6,50,72.1,50c3.9,0,7.3,2,9.2,5.1c0.8-0.3,1.7-0.4,2.6-0.4c4.7,0,8.5,3.8,8.5,8.5
	c0,4.7-3.8,8.5-8.5,8.5H62.8c-3.4,0-6.1-2.7-6.1-6.1C56.7,62.6,58.7,60.1,61.4,59.5z"/>
<path class="st0" d="M297.4,24c-6.6,0-12.1,4.7-13.4,10.9c-0.4-0.1-0.9-0.1-1.4-0.1c-4.6,0-8.3,3.7-8.3,8.3c0,4.5,3.5,8.1,7.9,8.3v0
	h15.1c7.6,0,13.7-6.1,13.7-13.7S305,24,297.4,24z"/>
<g>
	<path class="st3" d="M192.1,13l-3.3,6.8c-0.3,0.6-0.3,1.4,0.1,2l4.3,6.3c0.4,0.6,1.1,0.9,1.8,0.9l7.6-0.5c0.7-0.1,1.3-0.5,1.7-1.1
		l3.3-6.8c0.3-0.6,0.3-1.4-0.1-2l-4.3-6.3c-0.4-0.6-1.1-0.9-1.8-0.9l-7.6,0.5C193,11.9,192.4,12.4,192.1,13z"/>
	<path class="st3" d="M192.6,12l5.3,7.2c0.2,0.3,0.6,0.5,1,0.5l9.1-0.2"/>
	<line class="st3" x1="198.4" y1="19.5" x2="193.8" y2="28.9"/>
</g>
<circle class="st3" cx="152.7" cy="37.8" r="8.5"/>
<g>
	<path class="st3" d="M233.9,37.1l13.6-8.3c1-0.6,2.2,0.3,1.9,1.4l-4.7,16.3"/>
	<ellipse transform="matrix(0.6371 -0.7708 0.7708 0.6371 54.4206 199.545)" class="st3" cx="239.1" cy="42" rx="2.4" ry="7.2"/>
</g>
<g>
	<g>
		<g>
			<polygon class="st4" points="197.3,128.7 157.7,117.7 157.7,78.1 197.3,89.1 			"/>
			<polygon class="st4" points="236.7,117.7 197.1,128.7 197.1,89.1 236.7,78.1 			"/>
			<polyline class="st5" points="236.7,78.1 198.1,66.7 157.7,78.1 			"/>
			<polyline class="st5" points="158.5,78 149,68.5 188.1,58.1 198.1,66.5 			"/>
			<polyline class="st5" points="197.5,66.5 207.5,58.1 246.6,68.5 236.7,77.5 			"/>
		</g>
		<polygon class="st6" points="160,78.1 197.3,67.5 233.6,78.1 197.3,88.1 		"/>
	</g>
	<g>
		<g>
			<line class="st7" x1="197.3" y1="44.9" x2="197.3" y2="76.7"/>
		</g>
		<path d="M194,45.7l3-3.6c0.2-0.2,0.4-0.2,0.6,0l3,3.6c0.2,0.3,0,0.6-0.3,0.6h-5.9C194,46.3,193.8,45.9,194,45.7z"/>
	</g>
	<g>
		<g>
			<line class="st7" x1="225" y1="54.5" x2="202.5" y2="77.1"/>
		</g>
		<path d="M222.1,52.8l4.6-0.4c0.2,0,0.4,0.2,0.4,0.4l-0.4,4.6c0,0.3-0.4,0.5-0.7,0.2l-4.2-4.2C221.6,53.2,221.8,52.9,222.1,52.8z"
			/>
	</g>
	<g>
		<g>
			<line class="st7" x1="169.4" y1="54.5" x2="192" y2="77.1"/>
		</g>
		<path d="M172.3,52.8l-4.6-0.4c-0.2,0-0.4,0.2-0.4,0.4l0.4,4.6c0,0.3,0.4,0.5,0.7,0.2l4.2-4.2C172.8,53.2,172.6,52.9,172.3,52.8z"
			/>
	</g>
</g>
</svg>
