<?xml version="1.0" encoding="utf-8"?>
<!-- Generator: Adobe Illustrator 22.0.1, SVG Export Plug-In . SVG Version: 6.00 Build 0)  -->
<svg version="1.1" id="Layer_1" xmlns="http://www.w3.org/2000/svg" xmlns:xlink="http://www.w3.org/1999/xlink" x="0px" y="0px"
	 viewBox="0 0 400 140" style="enable-background:new 0 0 400 140;" xml:space="preserve">
<style type="text/css">
	.st0{fill:#0083FD;}
	.st1{fill:none;stroke:#013F4F;stroke-width:2;stroke-miterlimit:10;}
	.st2{fill:none;stroke:#0083FD;stroke-width:2;stroke-linecap:round;stroke-miterlimit:10;}
	.st3{fill:#0083FD;stroke:#0083FD;stroke-miterlimit:10;}
	.st4{opacity:0.1;}
	.st5{fill:none;stroke:#013F4F;stroke-width:2;stroke-linecap:round;stroke-miterlimit:10;}
	.st6{opacity:0.1;fill:none;stroke:#013F4F;stroke-width:2;stroke-linecap:round;stroke-miterlimit:10;}
	.st7{fill:none;stroke:#000000;stroke-width:2;stroke-linecap:round;stroke-linejoin:round;stroke-miterlimit:10;}
</style>
<rect x="139.5" y="21" class="st0" width="114" height="19"/>
<rect x="175.7" y="47.4" class="st0" width="20.7" height="21.1"/>
<rect x="216.1" y="68.9" class="st0" width="20.2" height="20"/>
<path class="st1" d="M253.1,119.3h-112c-0.6,0-1-0.4-1-1V22.1c0-0.6,0.4-1,1-1h112c0.6,0,1,0.4,1,1v96.2
	C254.1,118.9,253.6,119.3,253.1,119.3z"/>
<line class="st1" x1="140.3" y1="40.1" x2="253.8" y2="40.1"/>
<path class="st2" d="M175.7,68.5h-20.2V49.3c0-0.6,0.4-1,1-1h19.2V68.5z"/>
<path class="st2" d="M196,68.5h-20.2V49.3c0-0.6,0.4-1,1-1H196V68.5z"/>
<path class="st2" d="M236.5,68.5h-20.2V48.3h19.2c0.6,0,1,0.4,1,1V68.5z"/>
<path class="st2" d="M216.1,68.5h-20.2V48.3h19.2c0.6,0,1,0.4,1,1V68.5z"/>
<rect x="155.4" y="68.5" class="st2" width="20.2" height="20.2"/>
<rect x="175.7" y="68.5" class="st2" width="20.2" height="20.2"/>
<rect x="196" y="68.5" class="st2" width="20.2" height="20.2"/>
<rect x="216.2" y="68.5" class="st2" width="20.2" height="20.2"/>
<path class="st2" d="M175.7,109h-19.2c-0.6,0-1-0.4-1-1V88.7h20.2V109z"/>
<rect x="175.7" y="88.7" class="st2" width="20.2" height="20.2"/>
<rect x="196" y="88.7" class="st2" width="20.2" height="20.2"/>
<path class="st2" d="M235.5,109h-19.2V88.7h20.2V108C236.5,108.5,236,109,235.5,109z"/>
<g>
	<line class="st1" x1="155.8" y1="17.7" x2="155.7" y2="24.4"/>
	<line class="st1" x1="161" y1="17.7" x2="160.9" y2="24.4"/>
</g>
<g>
	<line class="st1" x1="232.5" y1="17.7" x2="232.4" y2="24.4"/>
	<line class="st1" x1="237.7" y1="17.7" x2="237.6" y2="24.4"/>
</g>
<rect x="195.4" y="89.3" class="st3" width="20.2" height="20"/>
<g>
	<g>
		<path d="M185.9,64.9c-0.2,0-0.3,0-0.5-0.1l-5-2.2c-0.4-0.2-0.7-0.6-0.7-1.1l-0.1-5.5c0-0.4,0.2-0.9,0.6-1.1l4.5-2.3
			c0.3-0.2,0.6-0.2,1-0.1l5.1,1.9c0.5,0.2,0.8,0.6,0.8,1.1l0.1,6c0,0.5-0.3,0.9-0.7,1.1l-4.6,2.1C186.3,64.9,186.1,64.9,185.9,64.9z
			 M185.3,53.5c0,0-0.1,0-0.1,0l-4.5,2.3c-0.1,0-0.1,0.1-0.1,0.2l0.1,5.5c0,0.1,0.1,0.2,0.1,0.2l5,2.2c0.1,0,0.1,0,0.2,0l4.6-2.1
			c0.1,0,0.1-0.1,0.1-0.2l-0.1-6c0-0.1-0.1-0.2-0.1-0.2L185.3,53.5C185.3,53.5,185.3,53.5,185.3,53.5z"/>
	</g>
	<g>
		<path d="M185.6,57.9c-0.1,0-0.3,0-0.4-0.1l-5.3-1.8l0.3-0.9l5.3,1.8c0.1,0,0.1,0,0.2,0l5.1-2.2l0.4,0.9l-5.1,2.2
			C185.9,57.8,185.8,57.9,185.6,57.9z"/>
	</g>
	<g>
		<rect x="185.3" y="57.4" transform="matrix(0.9997 -2.453818e-02 2.453818e-02 0.9997 -1.4403 4.576)" width="1" height="7.1"/>
	</g>
</g>
<g>
	<path d="M226.3,85c-2.7,0-5.2-1.9-5.9-4.6c-0.8-3.2,1.2-6.5,4.5-7.3c3.2-0.8,6.5,1.2,7.3,4.5c0.8,3.2-1.2,6.5-4.5,7.3
		C227.3,85,226.8,85,226.3,85z M226.3,73.9c-0.4,0-0.8,0-1.2,0.1c-2.7,0.7-4.4,3.4-3.8,6.2c0.7,2.7,3.4,4.4,6.2,3.8
		c2.7-0.7,4.4-3.4,3.8-6.2C230.7,75.5,228.6,73.9,226.3,73.9z"/>
</g>
<path d="M210.6,102.8L210.6,102.8L210.6,102.8l-3.6-9.8c-0.2-0.5-0.7-0.8-1.2-0.8c0,0,0,0,0,0c-0.5,0-1,0.3-1.2,0.9l-3,9.6l0,0
	c0,0,0,0,0,0c0,0.8,2,1.5,4.4,1.5c0.1,0,0.1,0,0.2,0C208.6,104.3,210.5,103.7,210.6,102.8C210.6,102.9,210.5,102.9,210.6,102.8
	L210.6,102.8z M206.3,103.4c-0.1,0-0.1,0-0.2,0c-1.5,0-2.6-0.3-3.2-0.6c0.5-0.2,1.5-0.5,3-0.5l0-1h0c-1.2,0-2.2,0.2-3,0.4l2.6-8.3
	c0.1-0.2,0.2-0.2,0.3-0.2c0.1,0,0.2,0,0.3,0.2l3.1,8.4c-0.8-0.3-1.9-0.4-3.1-0.4c-0.1,0-0.1,0-0.2,0v1h0c0.1,0,0.1,0,0.2,0
	c1.5,0,2.6,0.3,3.2,0.6C208.8,103.1,207.8,103.4,206.3,103.4z"/>
<g class="st4">
	<line class="st5" x1="32.2" y1="46.7" x2="32.2" y2="51.7"/>
	<line class="st5" x1="34.7" y1="49.2" x2="29.7" y2="49.2"/>
</g>
<g class="st4">
	<line class="st5" x1="372.7" y1="57.2" x2="372.7" y2="62.2"/>
	<line class="st5" x1="375.2" y1="59.7" x2="370.2" y2="59.7"/>
</g>
<g class="st4">
	<line class="st5" x1="317.2" y1="90.7" x2="317.2" y2="95.7"/>
	<line class="st5" x1="319.7" y1="93.2" x2="314.7" y2="93.2"/>
</g>
<polyline class="st6" points="70,18.7 72.2,14.8 76.7,16.7 79.3,11.8 "/>
<polyline class="st6" points="103,113.2 105.2,109.3 109.7,111.2 112.3,106.3 "/>
<polyline class="st6" points="372,28.7 374.2,24.8 378.7,26.7 381.3,21.8 "/>
<polyline class="st6" points="347,119.7 349.2,115.8 353.7,117.7 356.3,112.8 "/>
<polygon class="st6" points="279.3,81.9 276.2,85.3 279.2,88.2 282.4,85.2 "/>
<polygon class="st6" points="35.9,105.8 32.7,109.2 35.8,112.1 39,109.1 "/>
<path class="st6" d="M333.5,42.9c-0.9-7.6-7.4-13.5-15.2-13.5c-5.5,0-10.3,2.9-13,7.2c-1.1-0.4-2.4-0.6-3.6-0.6c-6.6,0-12,5.4-12,12
	c0,6.6,5.4,12,12,12h30c4.8,0,8.7-3.9,8.7-8.7C340.2,47.2,337.4,43.8,333.5,42.9z"/>
<path class="st6" d="M85.6,57.4c-8.1,0-14.9,5.8-16.5,13.4c-0.5-0.1-1.1-0.1-1.7-0.1c-5.6,0-10.2,4.6-10.2,10.2
	c0,5.5,4.3,9.9,9.7,10.2v0h18.6c9.3,0,16.8-7.5,16.8-16.8S94.9,57.4,85.6,57.4z"/>
<path class="st7" d="M253.1,119.3h-112c-0.6,0-1-0.4-1-1V22.1c0-0.6,0.4-1,1-1h112c0.6,0,1,0.4,1,1v96.2
	C254.1,118.9,253.6,119.3,253.1,119.3z"/>
<line class="st7" x1="140.3" y1="40.1" x2="253.8" y2="40.1"/>
<g>
	<line class="st7" x1="155.8" y1="17.7" x2="155.7" y2="24.4"/>
	<line class="st7" x1="161" y1="17.7" x2="160.9" y2="24.4"/>
</g>
<g>
	<line class="st7" x1="232.5" y1="17.7" x2="232.4" y2="24.4"/>
	<line class="st7" x1="237.7" y1="17.7" x2="237.6" y2="24.4"/>
</g>
</svg>
