<?xml version="1.0" encoding="utf-8"?>
<!-- Generator: Adobe Illustrator 22.0.1, SVG Export Plug-In . SVG Version: 6.00 Build 0)  -->
<svg version="1.1" id="Layer_1" xmlns="http://www.w3.org/2000/svg" xmlns:xlink="http://www.w3.org/1999/xlink" x="0px" y="0px"
	 viewBox="0 0 400 140" style="enable-background:new 0 0 400 140;" xml:space="preserve">
<style type="text/css">
	.st0{fill:none;stroke:#000000;stroke-width:2;stroke-miterlimit:10;}
	.st1{opacity:0.1;fill:none;stroke:#013F4F;stroke-width:2;stroke-linecap:round;stroke-miterlimit:10;}
	.st2{opacity:0.1;}
	.st3{fill:none;stroke:#013F4F;stroke-width:2;stroke-linecap:round;stroke-miterlimit:10;}
	.st4{fill:#013F4F;}
	.st5{fill:none;stroke:#000000;stroke-width:2;stroke-linecap:round;stroke-miterlimit:10;stroke-dasharray:0.25,5,0.25,5,0.25,5;}
	.st6{fill:none;stroke:#000000;stroke-width:2;stroke-linecap:round;stroke-miterlimit:10;stroke-dasharray:0,6;}
	.st7{fill:#0083FD;stroke:#000000;stroke-width:2;stroke-miterlimit:10;}
	.st8{fill:none;stroke:#0083FD;stroke-width:2;stroke-miterlimit:10;}
	.st9{fill:none;stroke:#000000;stroke-width:2;stroke-linecap:round;stroke-linejoin:round;stroke-miterlimit:10;}
	.st10{fill:#0083FD;}
</style>
<path class="st0" d="M80.5,97.6"/>
<polygon class="st1" points="51.4,107.3 48.3,110.6 51.4,113.5 54.5,110.5 "/>
<g class="st2">
	<line class="st3" x1="39.3" y1="18" x2="39.3" y2="23"/>
	<line class="st3" x1="41.8" y1="20.5" x2="36.8" y2="20.5"/>
</g>
<g>
	<path class="st4" d="M98,75.9"/>
</g>
<g>
	<path class="st4" d="M87.5,90.2"/>
</g>
<path class="st1" d="M176.6,10.4c-8.1,0-14.9,5.8-16.5,13.4c-0.5-0.1-1.1-0.1-1.7-0.1c-5.6,0-10.2,4.6-10.2,10.2
	c0,5.5,4.3,9.9,9.7,10.2v0h18.6c9.3,0,16.8-7.5,16.8-16.8S185.9,10.4,176.6,10.4z"/>
<path class="st1" d="M76.3,52.2c-0.7-5.7-5.5-10.1-11.4-10.1c-4.1,0-7.7,2.2-9.7,5.4c-0.9-0.3-1.8-0.4-2.7-0.4c-4.9,0-8.9,4-8.9,8.9
	c0,4.9,4,8.9,8.9,8.9h22.4c3.6,0,6.5-2.9,6.5-6.5C81.4,55.5,79.2,52.9,76.3,52.2z"/>
<path class="st1" d="M350.8,64.9c0.6-5.4,5.2-9.5,10.7-9.5c3.9,0,7.3,2,9.2,5.1c0.8-0.3,1.7-0.4,2.6-0.4c4.7,0,8.5,3.8,8.5,8.5
	c0,4.7-3.8,8.5-8.5,8.5h-21.1c-3.4,0-6.1-2.7-6.1-6.1C346,68,348.1,65.6,350.8,64.9z"/>
<path class="st5" d="M295,77.9c-7.7,12.4-19,6.5-19,6.5c-17-10.2-28.2-3.5-33.6,3.9s-24.8,38.3-49.8,13.1c0,0-4.8-7-14.6-8.6"/>
<path class="st6" d="M92,85.2"/>
<path d="M321.8,69.8c-0.1-0.6-0.6-1-1.2-1.1l-22.3-3.3c-0.6-0.1-1.1,0.2-1.4,0.7c-0.3,0.5-0.3,1.1,0.1,1.6l3.8,5l0.2,0.9l-1.5,3.3
	c-0.2,0.5,0.2,1,0.7,0.9l1.7-0.4l0.7,3c0.1,0.4,0.4,0.7,0.7,0.9c0,0,0.1,0,0.1,0.1c0.4,0.2,0.9,0.1,1.3-0.1l16.4-9.9
	C321.7,71,321.9,70.4,321.8,69.8z M298.5,67l17.2,2.5l-13.9,1.9L298.5,67z M304.1,79.7l-1.6-6.7l16.6-2.3L304.1,79.7z"/>
<path class="st0" d="M104.2,92.6"/>
<path class="st0" d="M81.5,99.6"/>
<path class="st7" d="M257,28.9l25.2,6.5c1.8,0.5,2,3,0.3,3.8l-24.7,10.5"/>
<circle class="st8" cx="210.6" cy="83.6" r="16.4"/>
<path class="st0" d="M156.5,92.6"/>
<path class="st0" d="M137.7,92.6"/>
<path class="st0" d="M196.4,92.6"/>
<path class="st0" d="M173.3,92.6"/>
<path class="st0" d="M254,92.6"/>
<path class="st0" d="M224.2,92.6"/>
<line class="st9" x1="257.3" y1="22.1" x2="257.3" y2="105.1"/>
<path class="st0" d="M286.3,92.6"/>
<path class="st0" d="M256.5,92.6"/>
<path class="st8" d="M150.4,113.2l12-37.4c0.9-2.7,4.7-2.7,5.7-0.1l13.6,38.2"/>
<path class="st10" d="M164.9,110.5L164.9,110.5c0.4,0,0.8,0,1.2,0c9.5,0.2,14.8,2.9,15,4c-0.2,0.9-4.8,3.4-14,3.4
	c-0.4,0-0.8,0-1.2,0c-9.5-0.2-14.8-2.9-15-4C151.1,112.9,155.6,110.5,164.9,110.5 M164.9,108.5c-8.9,0-15.9,2.3-16,5.3
	c-0.1,3.1,7.5,5.9,17,6.1c0.4,0,0.8,0,1.2,0c8.9,0,15.9-2.3,16-5.3c0.1-3.1-7.5-5.9-17-6.1C165.7,108.5,165.3,108.5,164.9,108.5
	L164.9,108.5z"/>
<circle class="st7" cx="257.1" cy="18.8" r="3.2"/>
<path class="st5" d="M152.4,90.6c0,0-9.3,0.8-15.5,15.8c-6.2,15-32.7,17-40.7-8.3"/>
<polygon class="st1" points="289.4,102.1 286.3,105.5 289.4,108.4 292.5,105.4 "/>
<polyline class="st1" points="224.9,128 227,124.1 231.6,126 234.1,121.1 "/>
<polyline class="st1" points="17,86 19.2,82.1 23.8,84 26.3,79.1 "/>
<g class="st2">
	<line class="st3" x1="324.8" y1="21" x2="324.8" y2="26"/>
	<line class="st3" x1="327.3" y1="23.5" x2="322.3" y2="23.5"/>
</g>
<g class="st2">
	<line class="st3" x1="353.3" y1="108" x2="353.3" y2="113"/>
	<line class="st3" x1="355.8" y1="110.5" x2="350.8" y2="110.5"/>
</g>
<g class="st2">
	<line class="st3" x1="109.4" y1="30.3" x2="109.4" y2="35.3"/>
	<line class="st3" x1="111.9" y1="32.8" x2="106.9" y2="32.8"/>
</g>
<g>
	<path class="st8" d="M102,79.3v14.8c0,0.7,0.4,1.4,1,1.7l12.8,7.4c0.6,0.4,1.4,0.4,2,0l12.8-7.4c0.6-0.4,1-1,1-1.7V79.3
		c0-0.7-0.4-1.4-1-1.7l-12.8-7.4c-0.6-0.4-1.4-0.4-2,0L103,77.6C102.4,77.9,102,78.6,102,79.3z"/>
	<path class="st8" d="M102,78.2l13.7,7.2c0.6,0.3,1.4,0.3,2,0l13.9-7.2"/>
	<line class="st8" x1="116.6" y1="85.5" x2="116.6" y2="103.6"/>
</g>
</svg>
