<?xml version="1.0" encoding="utf-8"?>
<!-- Generator: Adobe Illustrator 22.0.1, SVG Export Plug-In . SVG Version: 6.00 Build 0)  -->
<svg version="1.1" id="Layer_1" xmlns="http://www.w3.org/2000/svg" xmlns:xlink="http://www.w3.org/1999/xlink" x="0px" y="0px"
	 viewBox="0 0 400 140" style="enable-background:new 0 0 400 140;" xml:space="preserve">
<style type="text/css">
	.st0{fill:#0083FD;}
	.st1{opacity:0.1;fill:none;stroke:#013F4F;stroke-width:2;stroke-linecap:round;stroke-linejoin:round;stroke-miterlimit:10;}
	.st2{fill:#013F4F;}
	
		.st3{opacity:0.1;fill:none;stroke:#013F4F;stroke-width:2;stroke-linecap:round;stroke-linejoin:round;stroke-miterlimit:10;stroke-dasharray:0,6;}
	.st4{opacity:0.1;}
	.st5{fill:none;stroke:#013F4F;stroke-width:2;stroke-linecap:round;stroke-linejoin:round;stroke-miterlimit:10;}
	.st6{fill:none;stroke:#0083FD;stroke-width:2;stroke-miterlimit:10;}
	.st7{fill:none;stroke:#000000;stroke-width:2;stroke-miterlimit:10;}
	.st8{fill:#0083FD;stroke:#000000;stroke-width:2;stroke-miterlimit:10;}
</style>
<rect x="161.6" y="13.8" class="st0" width="69" height="10"/>
<rect x="160.6" y="110.8" class="st0" width="70" height="17"/>
<polygon class="st1" points="371.6,31.9 368.4,35.2 371.5,38.1 374.7,35.1 "/>
<g>
	<path class="st2" d="M159.2,101.6"/>
</g>
<g>
	<path class="st2" d="M231.6,119.2"/>
</g>
<g>
	<path class="st2" d="M160,44.9"/>
</g>
<g>
	<path d="M161.2,128.3c-0.6,0-1.2-0.3-1.7-0.7c-0.5-0.5-0.7-1.1-0.7-1.7l0.1-43.1l-0.1-18.3L159,14c0-0.6,0.3-1.2,0.7-1.7
		c0.5-0.5,1.1-0.7,1.7-0.7l68.6,0.1c0,0,0,0,0,0c0.6,0,1.2,0.3,1.7,0.7c0.5,0.5,0.7,1.1,0.7,1.7L232.3,126c0,1.3-1.1,2.4-2.4,2.4
		L161.2,128.3C161.2,128.3,161.2,128.3,161.2,128.3z M230.1,14.1L161.4,14l-0.2,50.5l0.1,18.3l-0.1,43.1l68.6,0.1L230.1,14.1z"/>
</g>
<g>
	<rect x="194.4" y="74.7" transform="matrix(1.685124e-03 -1 1 1.685124e-03 85.0745 305.5834)" width="2.4" height="71"/>
</g>
<g>
	<rect x="194.5" y="-11" transform="matrix(1.685124e-03 -1 1 1.685124e-03 170.8836 220.204)" width="2.4" height="71"/>
</g>
<g>
	<path d="M195.7,123.4c-2.7,0-4.9-2.2-4.9-5c0-1.3,0.5-2.6,1.5-3.5c0.9-0.9,2.2-1.4,3.5-1.4c0,0,0,0,0,0c1.3,0,2.5,0.5,3.5,1.5
		c0.9,0.9,1.4,2.2,1.4,3.5l0,0C200.7,121.2,198.5,123.5,195.7,123.4C195.7,123.4,195.7,123.4,195.7,123.4z M195.8,116
		C195.8,116,195.8,116,195.8,116c-0.7,0-1.3,0.3-1.8,0.7c-0.5,0.5-0.7,1.1-0.7,1.8c0,1.4,1.1,2.5,2.5,2.6c0,0,0,0,0,0
		c1.4,0,2.5-1.1,2.6-2.5l0,0c0-0.7-0.3-1.3-0.7-1.8C197.1,116.2,196.4,116,195.8,116z"/>
</g>
<g>
	<path d="M193.8,20c-0.7,0-1.2-0.5-1.2-1.2c0-0.7,0.5-1.2,1.2-1.2l13.3,0c0,0,0,0,0,0c0.7,0,1.2,0.5,1.2,1.2c0,0.7-0.5,1.2-1.2,1.2
		L193.8,20C193.8,20,193.8,20,193.8,20z"/>
</g>
<g>
	<path d="M184,20c-0.7,0-1.2-0.5-1.2-1.2c0-0.7,0.5-1.2,1.2-1.2l6.3,0c0,0,0,0,0,0c0.7,0,1.2,0.5,1.2,1.2c0,0.7-0.5,1.2-1.2,1.2
		L184,20C184,20,184,20,184,20z"/>
</g>
<g>
	<path class="st0" d="M202.5,81.5"/>
</g>
<path class="st3" d="M105.5,47"/>
<path class="st3" d="M108,53.8"/>
<g class="st4">
	<line class="st5" x1="35.3" y1="52.3" x2="35.3" y2="57.3"/>
	<line class="st5" x1="37.8" y1="54.8" x2="32.8" y2="54.8"/>
</g>
<polyline class="st1" points="50.1,115.2 52.3,111.3 56.9,113.1 59.4,108.2 "/>
<polyline class="st1" points="292.1,27.7 294.3,23.8 298.9,25.6 301.4,20.7 "/>
<polyline class="st1" points="340.2,56.8 344.3,58.5 343,63.2 348.1,65.2 "/>
<polygon class="st1" points="103.1,86.8 99.9,90.1 103,93 106.2,90 "/>
<path class="st1" d="M340.3,98.8c-6.6,0-12.1,4.7-13.4,10.9c-0.4-0.1-0.9-0.1-1.4-0.1c-4.6,0-8.3,3.7-8.3,8.3c0,4.5,3.5,8.1,7.9,8.3
	v0h15.1c7.6,0,13.7-6.1,13.7-13.7S347.9,98.8,340.3,98.8z"/>
<path class="st1" d="M57.3,28c0.6-5.4,5.2-9.5,10.7-9.5c3.9,0,7.3,2,9.2,5.1c0.8-0.3,1.7-0.4,2.6-0.4c4.7,0,8.5,3.8,8.5,8.5
	c0,4.7-3.8,8.5-8.5,8.5H58.7c-3.4,0-6.1-2.7-6.1-6.1C52.6,31,54.6,28.6,57.3,28z"/>
<path class="st5" d="M159.2,87.1"/>
<g>
	<g>
		<path class="st0" d="M203.4,82.7"/>
	</g>
	<g>
		<path class="st0" d="M180.6,70.7c-0.5-0.5-0.4-1.2,0-1.7l0,0c0.5-0.5,1.2-0.4,1.7,0.1l0,0c0.5,0.5,0.4,1.2,0,1.7l0,0
			c-0.2,0.2-0.5,0.3-0.8,0.3l0,0C181.2,71.1,180.9,70.9,180.6,70.7z M185.9,65.8c-0.5-0.5-0.4-1.2,0.1-1.7l0,0
			c0.5-0.5,1.2-0.4,1.7,0l0,0c0.5,0.5,0.4,1.2-0.1,1.7l0,0c-0.2,0.2-0.5,0.3-0.8,0.3l0,0C186.4,66.2,186.1,66,185.9,65.8z
			 M191.1,60.9c-0.5-0.5-0.4-1.2,0.1-1.7l0,0c0.5-0.5,1.2-0.4,1.7,0l0,0c0.5,0.5,0.4,1.2-0.1,1.7l0,0c-0.2,0.2-0.5,0.3-0.8,0.3l0,0
			C191.6,61.2,191.3,61.1,191.1,60.9z"/>
	</g>
	<g>
		<path class="st0" d="M210.9,70.9c-0.5-0.5-0.5-1.2,0-1.7l0,0c0.5-0.5,1.2-0.5,1.7,0l0,0c0.5,0.5,0.5,1.2,0,1.7l0,0
			c-0.2,0.2-0.6,0.4-0.9,0.4l0,0C211.4,71.3,211.1,71.2,210.9,70.9z M205.7,66c-0.5-0.5-0.5-1.2,0-1.7l0,0c0.5-0.5,1.2-0.5,1.7,0
			l0,0c0.5,0.5,0.5,1.2,0,1.7l0,0c-0.2,0.2-0.6,0.4-0.9,0.4l0,0C206.2,66.3,206,66.2,205.7,66z M200.6,61c-0.5-0.5-0.5-1.2,0-1.7
			l0,0c0.5-0.5,1.2-0.5,1.7,0l0,0c0.5,0.5,0.5,1.2,0,1.7l0,0c-0.2,0.2-0.6,0.4-0.9,0.4l0,0C201.1,61.3,200.8,61.2,200.6,61z"/>
	</g>
	<g>
		<path class="st0" d="M207.2,80.1c-0.7,0-1.2-0.5-1.2-1.2l0,0c0-0.7,0.5-1.2,1.2-1.2l0,0c0.7,0,1.2,0.5,1.2,1.2l0,0
			C208.4,79.6,207.8,80.1,207.2,80.1L207.2,80.1L207.2,80.1z M198.8,78.8c0-0.7,0.5-1.2,1.2-1.2l0,0c0.7,0,1.2,0.5,1.2,1.2l0,0
			c0,0.7-0.5,1.2-1.2,1.2l0,0C199.3,80,198.8,79.5,198.8,78.8z M192.8,80c-0.7,0-1.2-0.5-1.2-1.2l0,0c0-0.7,0.5-1.2,1.2-1.2l0,0
			c0.7,0,1.2,0.5,1.2,1.2l0,0C194,79.5,193.5,80,192.8,80L192.8,80L192.8,80z M185.6,79.9c-0.7,0-1.2-0.5-1.2-1.2l0,0
			c0-0.7,0.5-1.2,1.2-1.2l0,0c0.7,0,1.2,0.5,1.2,1.2l0,0C186.8,79.4,186.3,79.9,185.6,79.9L185.6,79.9L185.6,79.9z"/>
	</g>
	<circle class="st6" cx="216.3" cy="77.8" r="5.1"/>
	<g>
		<path class="st6" d="M169.9,74.7l-0.1,3.7c0,0.7,0.3,1.4,1,1.8l3.1,1.9c0.6,0.4,1.4,0.4,2,0.1l3.2-1.8c0.6-0.3,1-1,1-1.7l0.1-3.7
			c0-0.7-0.3-1.4-1-1.8l-3.1-1.9c-0.6-0.4-1.4-0.4-2-0.1l-3.2,1.8C170.3,73.4,169.9,74,169.9,74.7z"/>
		<path class="st6" d="M169.9,73.6l4.7,2.6c0.2,0.1,0.5,0.1,0.7,0l4.9-2.4"/>
		<line class="st6" x1="175" y1="76.3" x2="174.8" y2="82.6"/>
	</g>
	<g>
		<path class="st6" d="M192,54.5l3.3-9.4c0.2-0.7,1.2-0.7,1.5,0l4.2,9.7"/>
		
			<ellipse transform="matrix(2.832853e-03 -1 1 2.832853e-03 141.1798 251.0335)" class="st6" cx="196.5" cy="54.7" rx="1.5" ry="4.5"/>
	</g>
</g>
<g>
	<line class="st7" x1="160" y1="70.4" x2="130.7" y2="70.4"/>
	<circle class="st8" cx="126.2" cy="70.4" r="4.5"/>
</g>
<g>
	<path class="st7" d="M232.4,52.9h19.7c0.1,0,0.2-0.1,0.2-0.2V39.5c0-0.1,0.1-0.2,0.2-0.2h8.3"/>
	<circle class="st8" cx="265.4" cy="39" r="4.5"/>
</g>
<line class="st7" x1="231.6" y1="70.4" x2="260.9" y2="70.4"/>
<circle class="st8" cx="265.4" cy="70.4" r="4.5"/>
<g>
	<path class="st7" d="M232.4,87.1h19.7c0.1,0,0.2,0.1,0.2,0.2v13.1c0,0.1,0.1,0.2,0.2,0.2h8.3"/>
	<circle class="st8" cx="265.4" cy="101" r="4.5"/>
</g>
<g class="st4">
	<line class="st5" x1="301.8" y1="62.8" x2="301.8" y2="67.8"/>
	<line class="st5" x1="304.3" y1="65.3" x2="299.3" y2="65.3"/>
</g>
</svg>
