<?xml version="1.0" encoding="utf-8"?>
<!-- Generator: Adobe Illustrator 22.0.1, SVG Export Plug-In . SVG Version: 6.00 Build 0)  -->
<svg version="1.1" id="Layer_1" xmlns="http://www.w3.org/2000/svg" xmlns:xlink="http://www.w3.org/1999/xlink" x="0px" y="0px"
	 viewBox="0 0 400 140" style="enable-background:new 0 0 400 140;" xml:space="preserve">
<style type="text/css">
	.st0{opacity:0.1;fill:none;stroke:#013F4F;stroke-width:2;stroke-linecap:round;stroke-linejoin:round;stroke-miterlimit:10;}
	.st1{opacity:0.1;}
	.st2{fill:none;stroke:#013F4F;stroke-width:2;stroke-linecap:round;stroke-linejoin:round;stroke-miterlimit:10;}
	.st3{fill:none;stroke:#0083FD;stroke-width:2;stroke-miterlimit:10;}
	.st4{fill:none;stroke:#000000;stroke-width:2;stroke-miterlimit:10;}
	.st5{fill:none;stroke:#000000;stroke-width:2;stroke-linecap:round;stroke-linejoin:round;stroke-miterlimit:10;}
	.st6{fill:#0083FD;stroke:#000000;stroke-width:2;stroke-miterlimit:10;}
</style>
<path class="st0" d="M74.5,99.6c-0.6-5.4-5.2-9.5-10.7-9.5c-3.9,0-7.3,2-9.2,5.1c-0.8-0.3-1.7-0.4-2.6-0.4c-4.7,0-8.5,3.8-8.5,8.5
	c0,4.7,3.8,8.5,8.5,8.5h21.1c3.4,0,6.1-2.7,6.1-6.1C79.2,102.6,77.2,100.2,74.5,99.6z"/>
<g class="st1">
	<line class="st2" x1="60" y1="56.3" x2="60" y2="61.3"/>
	<line class="st2" x1="62.5" y1="58.8" x2="57.5" y2="58.8"/>
</g>
<g class="st1">
	<line class="st2" x1="291.9" y1="28.8" x2="291.9" y2="33.8"/>
	<line class="st2" x1="294.4" y1="31.3" x2="289.4" y2="31.3"/>
</g>
<polyline class="st0" points="364.2,21.6 360.3,23.6 361.9,28.2 356.9,30.5 "/>
<polyline class="st0" points="21.2,114.2 25.3,115.9 24,120.6 29.1,122.6 "/>
<polygon class="st0" points="362.3,113.6 359.1,116.9 362.2,119.8 365.4,116.8 "/>
<polygon class="st0" points="266.3,77.2 263.2,80.5 266.2,83.5 269.4,80.5 "/>
<polygon class="st0" points="125.7,92.2 122.5,95.5 125.6,98.4 128.8,95.4 "/>
<path class="st0" d="M307.6,67.6c0.6-5.4,5.2-9.5,10.7-9.5c3.9,0,7.3,2,9.2,5.1c0.8-0.3,1.7-0.4,2.6-0.4c4.7,0,8.5,3.8,8.5,8.5
	c0,4.7-3.8,8.5-8.5,8.5H309c-3.4,0-6.1-2.7-6.1-6.1C302.9,70.6,304.9,68.2,307.6,67.6z"/>
<path class="st0" d="M102.2,19.9c-6.6,0-12.1,4.7-13.4,10.9c-0.4-0.1-0.9-0.1-1.4-0.1c-4.6,0-8.3,3.7-8.3,8.3c0,4.5,3.5,8.1,7.9,8.3
	v0h15.1c7.6,0,13.7-6.1,13.7-13.7S109.7,19.9,102.2,19.9z"/>
<g>
	<path class="st3" d="M132.3,44.8l-4,8.3c-0.3,0.6-0.3,1.4,0.1,2l5.2,7.6c0.4,0.6,1.1,0.9,1.8,0.9l9.2-0.7c0.7-0.1,1.3-0.5,1.7-1.1
		l4-8.3c0.3-0.6,0.3-1.4-0.1-2l-5.2-7.6c-0.4-0.6-1.1-0.9-1.8-0.9l-9.2,0.7C133.2,43.7,132.6,44.1,132.3,44.8z"/>
	<path class="st3" d="M132.8,43.7l6.2,8.4c0.3,0.4,0.7,0.6,1.2,0.6l10.6-0.3"/>
	<line class="st3" x1="139.5" y1="52.5" x2="134.2" y2="63.5"/>
</g>
<circle class="st3" cx="197.3" cy="27.3" r="9.9"/>
<g>
	<path class="st3" d="M245.2,52.5l15.9-9.6c1.2-0.7,2.6,0.4,2.2,1.7l-5.5,18.9"/>
	<ellipse transform="matrix(0.6371 -0.7708 0.7708 0.6371 46.4058 214.8117)" class="st3" cx="251.3" cy="58.1" rx="2.8" ry="8.4"/>
</g>
<path class="st4" d="M220.2,82.8l-0.2-5c-0.1-1.6-1.7-2.3-3.3-2.3h-32.4l-0.2-2.2c-0.1-1.6-1.4-3.2-3-3.2h-16
	c-1.6,0-2.9,0.7-2.8,2.3l0.4,4.5l0.8,9.1l2.4,28.4c0.1,1.6,1.7,4,3.3,4h50.4"/>
<line class="st5" x1="197" y1="94.4" x2="197" y2="43.2"/>
<path class="st5" d="M214.6,94.4V56.6c0-0.2,0.1-0.3,0.3-0.3l24.1,0.2"/>
<path class="st5" d="M179.4,94.4V56.6c0-0.2-0.1-0.3-0.3-0.3h-24.3"/>
<path class="st6" d="M220.7,118.4h-51.1c-1.6,0-2.7-1.4-2.4-3l5.2-29.4c0.3-1.6,1.8-2.7,3.4-2.7h51.1c1.6,0,2.7,1.1,2.4,2.7
	l-5.2,29.6C223.8,117.1,222.3,118.4,220.7,118.4z"/>
</svg>
