<?xml version="1.0" encoding="utf-8"?>
<!-- Generator: Adobe Illustrator 22.0.1, SVG Export Plug-In . SVG Version: 6.00 Build 0)  -->
<svg version="1.1" id="Layer_1" xmlns="http://www.w3.org/2000/svg" xmlns:xlink="http://www.w3.org/1999/xlink" x="0px" y="0px"
	 viewBox="0 0 400 140" style="enable-background:new 0 0 400 140;" xml:space="preserve">
<style type="text/css">
	.st0{fill:#0083FD;}
	.st1{opacity:0.1;}
	.st2{fill:none;stroke:#013F4F;stroke-width:2;stroke-linecap:round;stroke-linejoin:round;stroke-miterlimit:10;}
	
		.st3{opacity:0.1;fill:none;stroke:#013F4F;stroke-width:2;stroke-linecap:round;stroke-linejoin:round;stroke-miterlimit:10;enable-background:new    ;}
	.st4{fill:none;stroke:#000000;stroke-width:2;stroke-miterlimit:10;}
	.st5{fill:#FFFFFF;stroke:#000000;stroke-width:2;stroke-miterlimit:10;}
	.st6{fill:none;stroke:#0083FD;stroke-width:2;stroke-miterlimit:10;}
	.st7{fill:none;stroke:#000000;stroke-width:2;stroke-linecap:round;stroke-miterlimit:10;stroke-dasharray:0.25,5,0.25,5,0.25,5;}
	.st8{fill:#FFFFFF;stroke:#0083FD;stroke-width:2;stroke-miterlimit:10;}
	.st9{fill:#0083FD;stroke:#000000;stroke-width:2;stroke-miterlimit:10;}
	.st10{stroke:#000000;stroke-miterlimit:10;}
</style>
<rect x="134.6" y="27" class="st0" width="123" height="9"/>
<g class="st1">
	<line class="st2" x1="307.1" y1="76.9" x2="307.1" y2="81.9"/>
	<line class="st2" x1="309.6" y1="79.4" x2="304.6" y2="79.4"/>
</g>
<g class="st1">
	<line class="st2" x1="173.1" y1="10.9" x2="173.1" y2="15.9"/>
	<line class="st2" x1="175.6" y1="13.4" x2="170.6" y2="13.4"/>
</g>
<g class="st1">
	<line class="st2" x1="115.4" y1="110.9" x2="115.4" y2="115.9"/>
	<line class="st2" x1="117.9" y1="113.4" x2="112.9" y2="113.4"/>
</g>
<polyline class="st3" points="43.7,110.2 41.3,114 36.9,111.9 34.1,116.6 "/>
<polyline class="st3" points="346.8,27.4 351.1,28.5 350.6,33.4 356,34.5 "/>
<polygon class="st3" points="93,51 89.8,54.3 92.9,57.2 96.1,54.3 "/>
<polygon class="st3" points="248.2,122.9 245,126.2 248.1,129.1 251.3,126.1 "/>
<path class="st3" d="M54,17.7c-6.6,0-12.1,4.7-13.4,10.9c-0.4-0.1-0.9-0.1-1.4-0.1c-4.6,0-8.3,3.7-8.3,8.3c0,4.5,3.5,8.1,7.9,8.3
	l0,0H54c7.6,0,13.7-6.1,13.7-13.7S61.6,17.7,54,17.7z"/>
<path class="st3" d="M335.9,107c0.6-5.4,5.2-9.5,10.7-9.5c3.9,0,7.3,2,9.2,5.1c0.8-0.3,1.7-0.4,2.6-0.4c4.7,0,8.5,3.8,8.5,8.5
	s-3.8,8.5-8.5,8.5h-21.1c-3.4,0-6.1-2.7-6.1-6.1C331.2,110,333.2,107.6,335.9,107z"/>
<polygon class="st3" points="290.2,12.9 287,16.2 290.1,19.1 293.3,16.1 "/>
<path class="st4" d="M257.3,112.6H136.2c-0.5,0-1-0.5-1-1V28.4c0-0.5,0.5-1,1-1h121.1c0.5,0,1,0.5,1,1v83.1
	C258.3,112.1,257.8,112.6,257.3,112.6z"/>
<line class="st4" x1="135.2" y1="35.8" x2="258.3" y2="35.8"/>
<circle class="st5" cx="140.8" cy="31.6" r="1.8"/>
<path class="st6" d="M196.7,70.9"/>
<path class="st6" d="M196.7,70.9"/>
<g>
	<path class="st7" d="M100.4,79c0,0,23.8-21,79.8-9s38.1,11,63.4,11s41.6-23,41.6-23"/>
</g>
<g>
	<path class="st8" d="M150.8,65.6l0.1,10.6c0,0.4,0.2,0.9,0.6,1.1l9.2,5.3c0.4,0.2,0.9,0.2,1.3,0l9.2-5.4c0.4-0.2,0.6-0.6,0.6-1.1
		l-0.1-10.6c0-0.4-0.2-0.9-0.6-1.1l-9.2,5.5c0,0-0.9-0.2-1.2,0l-9.2-5.4C151.1,64.7,150.8,65.1,150.8,65.6z"/>
	<path class="st8" d="M150.8,66l0.1,9.8c0,0.7,0.4,1.4,1,1.7l8.5,4.8c0.6,0.4,1.4,0.3,2,0l8.4-4.9c0.6-0.4,1-1,1-1.7l-0.1-9.8
		c0-0.7-0.4-1.4-1-1.7l-8.5-4.8c-0.6-0.4-1.4-0.3-2,0l-8.4,4.9C151.2,64.6,150.8,65.3,150.8,66z"/>
	<path class="st8" d="M150.8,64.8l9.7,5c0.4,0.2,1,0.2,1.4,0l9.8-5.2"/>
	<line class="st6" x1="161.2" y1="69.9" x2="161.3" y2="82.8"/>
</g>
<g>
	<path class="st8" d="M225.7,78.8l6.9-17.6c0.5-1.3,2.3-1.3,2.8,0l7.3,18.7"/>
	
		<ellipse transform="matrix(3.752544e-02 -0.9993 0.9993 3.752544e-02 145.8226 310.4545)" class="st8" cx="234.1" cy="79.5" rx="2.8" ry="8.5"/>
</g>
<circle class="st8" cx="200" cy="70.9" r="10"/>
<g>
	<path class="st9" d="M303.7,40.9l-9.9,16.3c-0.2,0.4-0.7,0.4-1,0.1l-5.2-5.9c-0.1-0.1-0.1-0.1-0.2-0.2l-5.7-2.7
		c-0.5-0.2-0.5-1,0.1-1.2L303,40C303.5,39.8,304,40.4,303.7,40.9z"/>
	<line class="st4" x1="287.5" y1="51.3" x2="302.9" y2="40.3"/>
	<path class="st10" d="M287.5,51.3l0.3,4.9c0,0.5,0.6,0.8,1,0.4l2-1.7"/>
</g>
</svg>
