<?xml version="1.0" encoding="utf-8"?>
<!-- Generator: Adobe Illustrator 22.0.1, SVG Export Plug-In . SVG Version: 6.00 Build 0)  -->
<svg version="1.1" id="Layer_1" xmlns="http://www.w3.org/2000/svg" xmlns:xlink="http://www.w3.org/1999/xlink" x="0px" y="0px"
	 viewBox="0 0 400 140" style="enable-background:new 0 0 400 140;" xml:space="preserve">
<style type="text/css">
	.st0{fill:#0083FD;}
	.st1{opacity:0.1;}
	.st2{fill:none;stroke:#013F4F;stroke-width:2;stroke-linecap:round;stroke-linejoin:round;stroke-miterlimit:10;}
	.st3{opacity:0.1;fill:none;stroke:#013F4F;stroke-width:2;stroke-linecap:round;stroke-linejoin:round;stroke-miterlimit:10;}
	.st4{fill:#FFFFFF;}
	.st5{fill:none;stroke:#0083FD;stroke-width:2;stroke-linecap:round;stroke-miterlimit:10;}
	.st6{fill:none;stroke:#0083FD;stroke-width:2;stroke-miterlimit:10;}
	.st7{fill:#FFFFFF;stroke:#0083FD;stroke-width:2;stroke-miterlimit:10;}
</style>
<rect x="127.2" y="21.4" class="st0" width="57" height="9"/>
<rect x="127.2" y="100.4" class="st0" width="57" height="14"/>
<rect x="215.2" y="21.4" class="st0" width="57" height="9"/>
<rect x="215.2" y="100.4" class="st0" width="57" height="14"/>
<g class="st1">
	<line class="st2" x1="362.4" y1="58.5" x2="362.4" y2="63.5"/>
	<line class="st2" x1="364.9" y1="61" x2="359.9" y2="61"/>
</g>
<polyline class="st3" points="309.4,78.4 305.3,80.1 306.6,84.9 301.5,86.8 "/>
<polyline class="st3" points="80.4,60.6 84.5,62.3 83.2,67 88.3,69 "/>
<polygon class="st3" points="348.6,108.8 345.4,112.1 348.5,115 351.7,112 "/>
<polygon class="st3" points="45.7,26.7 42.5,30 45.6,32.9 48.8,29.9 "/>
<path class="st3" d="M337.6,19.2c-6.6,0-12.1,4.7-13.4,10.9c-0.4-0.1-0.9-0.1-1.4-0.1c-4.6,0-8.3,3.7-8.3,8.3c0,4.5,3.5,8.1,7.9,8.3
	v0h15.1c7.6,0,13.7-6.1,13.7-13.7S345.2,19.2,337.6,19.2z"/>
<g>
	<g>
		<g>
			<path d="M127.3,115.3c-0.5,0-1-0.2-1.4-0.6c-0.4-0.4-0.6-0.9-0.6-1.4l0.1-35.3l-0.1-15l0.1-41.4c0-0.5,0.2-1,0.6-1.4
				c0.4-0.4,0.9-0.6,1.4-0.6l56.2,0.1c0,0,0,0,0,0c0.5,0,1,0.2,1.4,0.6c0.4,0.4,0.6,0.9,0.6,1.4l-0.2,91.7c0,1.1-0.9,2-2,2
				L127.3,115.3C127.3,115.3,127.3,115.3,127.3,115.3z M183.7,21.8l-56.2-0.1l-0.1,41.4l0.1,15l-0.1,35.3l56.2,0.1L183.7,21.8z"/>
		</g>
		<g>
			<rect x="154.5" y="71.4" transform="matrix(1.685124e-03 -1 1 1.685124e-03 54.7102 255.741)" width="2" height="58.2"/>
		</g>
		<g>
			<rect x="154.6" y="1.2" transform="matrix(1.685124e-03 -1 1 1.685124e-03 125.0108 185.7925)" width="2" height="58.2"/>
		</g>
		<g>
			<path d="M154,26.6c-0.5,0-1-0.4-1-1c0-0.5,0.4-1,1-1l10.9,0c0,0,0,0,0,0c0.5,0,1,0.4,1,1c0,0.5-0.4,1-1,1L154,26.6
				C154,26.6,154,26.6,154,26.6z"/>
		</g>
		<g>
			<path d="M145.9,26.6c-0.5,0-1-0.4-1-1c0-0.5,0.4-1,1-1l5.2,0c0,0,0,0,0,0c0.5,0,1,0.4,1,1c0,0.5-0.4,1-1,1L145.9,26.6
				C145.9,26.6,145.9,26.6,145.9,26.6z"/>
		</g>
	</g>
	<g>
		<g>
			<path d="M215.5,115.3c-0.5,0-1-0.2-1.4-0.6c-0.4-0.4-0.6-0.9-0.6-1.4l0.1-35.3l-0.1-15l0.1-41.4c0-0.5,0.2-1,0.6-1.4
				c0.4-0.4,0.9-0.6,1.4-0.6l56.2,0.1c0,0,0,0,0,0c0.5,0,1,0.2,1.4,0.6c0.4,0.4,0.6,0.9,0.6,1.4l-0.2,91.7c0,1.1-0.9,2-2,2
				L215.5,115.3C215.5,115.3,215.5,115.3,215.5,115.3z M271.9,21.8l-56.2-0.1l-0.1,41.4l0.1,15l-0.1,35.3l56.2,0.1L271.9,21.8z"/>
		</g>
		<g>
			<rect x="242.6" y="71.4" transform="matrix(1.685124e-03 -1 1 1.685124e-03 142.737 343.9162)" width="2" height="58.2"/>
		</g>
		<g>
			<rect x="242.8" y="1.2" transform="matrix(1.685124e-03 -1 1 1.685124e-03 213.0375 273.9677)" width="2" height="58.2"/>
		</g>
		<g>
			<path d="M242.2,26.6c-0.5,0-1-0.4-1-1c0-0.5,0.4-1,1-1l10.9,0c0,0,0,0,0,0c0.5,0,1,0.4,1,1c0,0.5-0.4,1-1,1L242.2,26.6
				C242.2,26.6,242.2,26.6,242.2,26.6z"/>
		</g>
		<g>
			<path d="M234.1,26.6c-0.5,0-1-0.4-1-1c0-0.5,0.4-1,1-1l5.2,0c0,0,0,0,0,0c0.5,0,1,0.4,1,1c0,0.5-0.4,1-1,1L234.1,26.6
				C234.1,26.6,234.1,26.6,234.1,26.6z"/>
		</g>
	</g>
</g>
<rect x="167.9" y="57.1" class="st4" width="63.5" height="16.4"/>
<g>
	<g>
		<line class="st5" x1="223.1" y1="61.8" x2="201.3" y2="61.8"/>
	</g>
	<g>
		<line class="st5" x1="185.5" y1="61.8" x2="178.5" y2="61.8"/>
	</g>
	<g>
		<line class="st5" x1="188.8" y1="61.8" x2="189.5" y2="61.8"/>
	</g>
	<g>
		<line class="st5" x1="175.2" y1="61.8" x2="174" y2="61.8"/>
	</g>
	<path class="st0" d="M222.1,59.2l2.9,2.4c0.2,0.1,0.2,0.4,0,0.5l-2.9,2.4c-0.2,0.2-0.5,0-0.5-0.2v-4.8
		C221.6,59.2,221.9,59,222.1,59.2z"/>
	<g>
		<line class="st5" x1="197.5" y1="61.8" x2="193" y2="61.8"/>
	</g>
</g>
<g>
	<g>
		<line class="st5" x1="175" y1="69" x2="196.9" y2="69"/>
	</g>
	<g>
		<line class="st5" x1="212.7" y1="69" x2="219.7" y2="69"/>
	</g>
	<g>
		<line class="st5" x1="209.3" y1="69" x2="208.7" y2="69"/>
	</g>
	<g>
		<line class="st5" x1="223" y1="69" x2="224.1" y2="69"/>
	</g>
	<path class="st0" d="M176,71.7l-2.9-2.4c-0.2-0.1-0.2-0.4,0-0.5l2.9-2.4c0.2-0.2,0.5,0,0.5,0.2v4.8C176.5,71.7,176.2,71.8,176,71.7
		z"/>
	<g>
		<line class="st5" x1="200.7" y1="69" x2="205.2" y2="69"/>
	</g>
</g>
<g>
	<path class="st4" d="M283,52.9l-13.5,2.3L265,69.7l9.7,10.4l13.9-3.2c0,0,4.3-11.7,4.8-12.2C294.3,63.9,283,52.9,283,52.9z"/>
	<g>
		<path class="st6" d="M269.1,56.3l-4.3,11.6c-0.2,0.7-0.1,1.4,0.3,2l7.9,9.5c0.5,0.6,1.2,0.8,1.9,0.7l12.2-2.1
			c0.7-0.1,1.3-0.6,1.5-1.3l4.3-11.6c0.2-0.7,0.1-1.4-0.3-2l-7.9-9.5c-0.5-0.6-1.2-0.8-1.9-0.7L270.7,55
			C270,55.1,269.4,55.6,269.1,56.3z"/>
		<path class="st6" d="M269.5,55.2l8.9,9.9c0.4,0.5,1,0.7,1.6,0.6l13.4-1.7"/>
		<line class="st6" x1="279.1" y1="65.5" x2="273.7" y2="80.1"/>
	</g>
</g>
<circle class="st7" cx="107.9" cy="44.9" r="13.6"/>
<g>
	<path class="st7" d="M119.6,107L115.5,77c-0.3-2.2,2.2-3.6,3.9-2.2l24.8,20.5"/>
	<ellipse transform="matrix(0.8915 -0.453 0.453 0.8915 -31.6849 70.8125)" class="st7" cx="132" cy="101.6" rx="13.7" ry="4.6"/>
</g>
<path class="st3" d="M35.4,101.7c0.6-5.4,5.2-9.5,10.7-9.5c3.9,0,7.3,2,9.2,5.1c0.8-0.3,1.7-0.4,2.6-0.4c4.7,0,8.5,3.8,8.5,8.5
	c0,4.7-3.8,8.5-8.5,8.5H36.7c-3.4,0-6.1-2.7-6.1-6.1C30.6,104.7,32.7,102.3,35.4,101.7z"/>
</svg>
