<?xml version="1.0" encoding="utf-8"?>
<!-- Generator: Adobe Illustrator 22.0.1, SVG Export Plug-In . SVG Version: 6.00 Build 0)  -->
<svg version="1.1" id="Layer_1" xmlns="http://www.w3.org/2000/svg" xmlns:xlink="http://www.w3.org/1999/xlink" x="0px" y="0px"
	 viewBox="0 0 400 140" style="enable-background:new 0 0 400 140;" xml:space="preserve">
<style type="text/css">
	.st0{opacity:0.1;}
	.st1{fill:none;stroke:#013F4F;stroke-width:2;stroke-linecap:round;stroke-linejoin:round;stroke-miterlimit:10;}
	.st2{opacity:0.1;fill:none;stroke:#013F4F;stroke-width:2;stroke-linecap:round;stroke-linejoin:round;stroke-miterlimit:10;}
	.st3{fill:#0083FD;}
	.st4{fill:none;stroke:#000000;stroke-width:2;stroke-miterlimit:10;}
	.st5{stroke:#000000;stroke-miterlimit:10;}
	.st6{fill:none;stroke:#000000;stroke-width:2;stroke-linecap:round;stroke-miterlimit:10;}
	
		.st7{fill:none;stroke:#000000;stroke-width:2;stroke-linecap:round;stroke-miterlimit:10;stroke-dasharray:0.2596,5.1918,0.2596,5.1918;}
	
		.st8{fill:none;stroke:#000000;stroke-width:2;stroke-linecap:round;stroke-miterlimit:10;stroke-dasharray:0.2596,5.1918,0.2596,5.1918,0.2596,5.1918;}
	.st9{fill:#FFFFFF;}
	.st10{fill:#0083FD;stroke:#0083FD;stroke-width:0.5;stroke-miterlimit:10;}
	.st11{fill:#013F4F;stroke:#013F4F;stroke-width:0.5;stroke-linecap:round;stroke-linejoin:round;stroke-miterlimit:10;}
	.st12{fill:#0083FD;stroke:#000000;stroke-width:2;stroke-miterlimit:10;}
	.st13{fill:#FFFFFF;stroke:#000000;stroke-width:2;stroke-linecap:round;stroke-linejoin:round;stroke-miterlimit:10;}
	.st14{fill:#FFFFFF;stroke:#000000;stroke-width:2;stroke-miterlimit:10;}
</style>
<g class="st0">
	<line class="st1" x1="46.5" y1="32.8" x2="46.5" y2="37.8"/>
	<line class="st1" x1="49" y1="35.3" x2="44" y2="35.3"/>
</g>
<polyline class="st2" points="41.4,89.2 43.5,85.3 48.1,87.1 50.6,82.2 "/>
<polyline class="st2" points="297.4,67.3 301.5,69 300.2,73.7 305.3,75.7 "/>
<polygon class="st2" points="136.2,116.7 133,120 136.1,122.9 139.2,119.9 "/>
<path class="st2" d="M348.6,79c-6.6,0-12.1,4.7-13.4,10.9c-0.4-0.1-0.9-0.1-1.4-0.1c-4.6,0-8.3,3.7-8.3,8.3c0,4.5,3.5,8.1,7.9,8.3v0
	h15.1c7.6,0,13.7-6.1,13.7-13.7C362.3,85.2,356.2,79,348.6,79z"/>
<path class="st2" d="M84,29c0.6-5.4,5.2-9.5,10.7-9.5c3.9,0,7.3,2,9.2,5.1c0.8-0.3,1.7-0.4,2.6-0.4c4.7,0,8.5,3.8,8.5,8.5
	c0,4.7-3.8,8.5-8.5,8.5H85.4c-3.4,0-6.1-2.7-6.1-6.1C79.3,32,81.3,29.6,84,29z"/>
<polygon class="st2" points="350,25.1 346.8,28.5 349.9,31.4 353,28.4 "/>
<g>
	<g>
		<path class="st3" d="M241,108c-5.8,0-10.5-4.8-10.4-10.6c0-5.8,4.8-10.5,10.6-10.4c5.8,0,10.5,4.8,10.4,10.6
			C251.5,103.4,246.8,108.1,241,108z M241.1,88.8c-4.8,0-8.8,3.9-8.8,8.7s3.9,8.8,8.7,8.8s8.8-3.9,8.8-8.7
			C249.9,92.8,246,88.8,241.1,88.8z"/>
	</g>
</g>
<g>
	<path class="st4" d="M302.5,23l-12.5,20.5c-0.3,0.5-0.9,0.5-1.3,0.1l-6.5-7.4c-0.1-0.1-0.2-0.1-0.3-0.2l-7.2-3.4
		c-0.6-0.3-0.6-1.2,0.1-1.4l26.6-9.3C302.3,21.6,302.9,22.3,302.5,23z"/>
	<line class="st4" x1="282.2" y1="36" x2="301.5" y2="22.3"/>
	<path class="st5" d="M282.2,36l0.4,6.2c0,0.6,0.8,1,1.3,0.6l2.5-2.1"/>
</g>
<g>
	<g>
		<path class="st6" d="M100.8,105.1C100.8,105.1,100.9,105.1,100.8,105.1"/>
		<path class="st7" d="M104.9,101.6c1.7-1.4,3.9-3.1,6.5-5.1"/>
		<path class="st8" d="M113.5,95c18.9-13.8,55.9-36,91-28.9c42.1,8.5,66.7-13,73.2-19.9"/>
		<path class="st6" d="M279.5,44.2C279.5,44.1,279.5,44.1,279.5,44.2"/>
	</g>
</g>
<g>
	<polygon class="st9" points="129.4,67.8 124.1,77.6 130.2,89.8 142.6,89.1 150.4,79.8 143,67.9 	"/>
	<g>
		<path class="st3" d="M142.1,65.3L131,66.8c-0.7,0.1-1.2,0.5-1.6,1l-5.8,8.6c-0.5,0.7-0.5,1.7-0.1,2.5l5.7,9.9
			c0.4,0.8,1.3,1.2,2.2,1.2l11.3-0.9c0.4,0,0.7-0.1,1-0.3c0.3-0.2,0.5-0.4,0.7-0.6l6.2-8.3c0.6-0.7,0.6-1.7,0.2-2.5l-6.2-10.8
			C143.9,65.6,143,65.2,142.1,65.3z M131,68.9c0,0,0.1-0.1,0.1-0.1c0,0,0.1,0,0.1-0.1l9.6-1.3l-5.6,7.2c-0.1,0.1-0.1,0.1-0.2,0.1
			l-9.1,1.6L131,68.9z M130.8,87.8l-5.4-9.5l9.8-1.7l6,10.6L131.2,88C131,88,130.9,88,130.8,87.8z M148.9,78.7l-5.8,7.8l-6.2-10.8
			l6.1-7.8l5.9,10.4C149,78.4,149,78.5,148.9,78.7z"/>
	</g>
</g>
<g>
	<path class="st9" d="M258.8,46.9l-15.3,15.3c0,0,3.1,5.2,7.5,6.5c4.4,1.3,8.8,0,8.8,0L258.8,46.9z"/>
	<g>
		<g>
			<path class="st10" d="M260,68.7l0.9-21c0-1-0.6-1.9-1.5-2.2c0,0,0,0,0,0c-0.9-0.4-2-0.1-2.6,0.6l-13,15.6l0.1,0.1
				c-0.1,0.1-0.2,0.2-0.3,0.4c-0.6,1.5,2.5,4.3,7,6.2c0.2,0.1,0.4,0.2,0.6,0.2c4.3,1.7,8.1,2,8.7,0.6c0.1-0.2,0.1-0.3,0.1-0.5
				L260,68.7z M251.6,67.2c-0.2-0.1-0.4-0.1-0.5-0.2c-3.6-1.5-5.5-3.3-6-4.1c0.9-0.2,3.3,0,6.5,1.3l0.6-1.4l0,0
				c-2.3-0.9-4.5-1.4-6.1-1.5l11.8-14.2c0.3-0.4,0.8-0.3,0.9-0.2c0.1,0.1,0.5,0.2,0.5,0.7l-0.8,18.9c-1.2-1.2-3.3-2.5-5.7-3.6
				c-0.2-0.1-0.4-0.2-0.6-0.2l-0.6,1.4c0.2,0.1,0.4,0.1,0.5,0.2c3.6,1.5,5.5,3.3,6,4.1C257.2,68.7,254.8,68.6,251.6,67.2z"/>
		</g>
		<g>
			<polygon class="st11" points="252.2,62.8 252.2,62.8 252.2,62.8 			"/>
		</g>
	</g>
</g>
<g>
	<circle class="st3" cx="206.5" cy="52.5" r="19.4"/>
	<circle class="st12" cx="206.6" cy="44.7" r="5.3"/>
	<path class="st12" d="M206.6,39.5"/>
	<path class="st12" d="M206.6,23.7"/>
	<path class="st12" d="M200.7,72.8v6.5l6.1,4.7l-6.4,4.9v5.6l6.4,4.9l-5.9,4.5V117l11.8-9.1V71.8c8-2.6,13.7-10.1,13.7-18.9
		c0-11-8.9-19.9-19.9-19.9c-2.5,0-4.8,0.5-7,1.3"/>
</g>
<path class="st13" d="M186.7,52.9c0-8.5,5.4-15.7,12.9-18.6c-10-2.2-20.2,3.6-23.3,13.5c-2.6,8.5,0.8,17.5,7.8,22.3l-2.2,7.1
	l4.4,6.3l-7.5,2.8l-1.6,5.3l4.7,6.5l-7,2.6l-3.9,12.6l14-5.2l10.6-34.5c1.7,0,3.5-0.3,5.1-0.8v-0.9
	C192.6,69.4,186.7,61.9,186.7,52.9z"/>
<circle class="st14" cx="206.6" cy="44.7" r="5.3"/>
<line class="st12" x1="206.6" y1="23.7" x2="206.6" y2="39.5"/>
</svg>
