<?xml version="1.0" encoding="utf-8"?>
<!-- Generator: Adobe Illustrator 22.0.1, SVG Export Plug-In . SVG Version: 6.00 Build 0)  -->
<svg version="1.1" id="Layer_1" xmlns="http://www.w3.org/2000/svg" xmlns:xlink="http://www.w3.org/1999/xlink" x="0px" y="0px"
	 viewBox="0 0 400 140" style="enable-background:new 0 0 400 140;" xml:space="preserve">
<style type="text/css">
	.st0{opacity:0.1;fill:none;stroke:#013F4F;stroke-width:2;stroke-linecap:round;stroke-linejoin:round;stroke-miterlimit:10;}
	.st1{opacity:0.1;}
	.st2{fill:none;stroke:#013F4F;stroke-width:2;stroke-linecap:round;stroke-linejoin:round;stroke-miterlimit:10;}
	.st3{fill:#0083FD;stroke:#000000;stroke-width:2;stroke-miterlimit:10;}
	.st4{fill:#E5E5E5;stroke:#000000;stroke-width:2;stroke-linecap:round;stroke-linejoin:round;stroke-miterlimit:10;}
	.st5{fill:none;stroke:#000000;stroke-width:2;stroke-linecap:round;stroke-linejoin:round;stroke-miterlimit:10;}
	.st6{fill:none;stroke:#0083FD;stroke-width:2;stroke-linecap:round;stroke-linejoin:round;stroke-miterlimit:10;}
	.st7{fill:none;stroke:#0083FD;stroke-width:2;stroke-miterlimit:10;}
</style>
<path class="st0" d="M335,68.6c-0.6-5.4-5.2-9.5-10.7-9.5c-3.9,0-7.3,2-9.2,5.1c-0.8-0.3-1.7-0.4-2.6-0.4c-4.7,0-8.5,3.8-8.5,8.5
	c0,4.7,3.8,8.5,8.5,8.5h21.1c3.4,0,6.1-2.7,6.1-6.1C339.8,71.6,337.7,69.2,335,68.6z"/>
<g class="st1">
	<line class="st2" x1="339.6" y1="18.8" x2="339.6" y2="23.8"/>
	<line class="st2" x1="342.1" y1="21.3" x2="337.1" y2="21.3"/>
</g>
<g class="st1">
	<line class="st2" x1="45.9" y1="102.2" x2="45.9" y2="107.2"/>
	<line class="st2" x1="48.4" y1="104.7" x2="43.4" y2="104.7"/>
</g>
<polyline class="st0" points="372.3,111.5 368.2,113.3 369.5,118 364.4,120 "/>
<polyline class="st0" points="35.9,16.6 40,18.3 38.7,23.1 43.8,25 "/>
<polygon class="st0" points="266.5,34.9 263.3,38.2 266.4,41.1 269.6,38.2 "/>
<polygon class="st0" points="111.7,83.2 108.5,86.5 111.6,89.4 114.8,86.4 "/>
<path class="st0" d="M87.9,34c-6.6,0-12.1,4.7-13.4,10.9c-0.4-0.1-0.9-0.1-1.4-0.1c-4.6,0-8.3,3.7-8.3,8.3c0,4.5,3.5,8.1,7.9,8.3v0
	h15.1c7.6,0,13.7-6.1,13.7-13.7S95.4,34,87.9,34z"/>
<g>
	<path class="st3" d="M188.8,67.7c-2.2,0-4.2,0-5.8,0c-0.3,0-0.5,0-0.7,0c-0.9,0-0.9,0-0.9,0c-0.4,0-1.8,0-2.7,0c-5.8,0-5.8,0-5.8,0
		c-8.3-0.1-15-6.8-15-14.9c0-7.5,5.6-13.8,12.9-14.8c0-0.3,0-0.7,0-1c0-12.3,9.9-22.2,22.2-22.2c7.7,0,14.5,4,18.5,9.9
		c1.8-1,3.8-1.6,6.1-1.6c2.7,0,5.1,0.8,7.2,2.2c3.4,2.3,5.6,6.1,5.7,10.4c4.7,3.1,8,8.6,8,14.6c0,9-6.8,16.4-15.5,17.5
		c-0.6,0-1.3,0-1.9,0c-0.6,0-1.2,0-1.8,0c-2.9,0-7.2,0-12,0"/>
	<line class="st4" x1="198.2" y1="52" x2="198.2" y2="93.8"/>
	<polyline class="st5" points="135.8,97.7 135.8,82.3 261.3,82.3 261.3,97.3 	"/>
	<g>
		<path class="st6" d="M127.8,120.9l6.9-16.7c0.5-1.2,2.2-1.2,2.7,0l6.7,18"/>
		
			<ellipse transform="matrix(5.341908e-02 -0.9986 0.9986 5.341908e-02 7.0177 250.8724)" class="st6" cx="135.8" cy="121.7" rx="2.7" ry="8.2"/>
	</g>
	<g>
		<path class="st7" d="M188.5,109.6l-0.1,9c0,0.7,0.4,1.4,1,1.7l7.7,4.5c0.6,0.4,1.4,0.4,2,0l7.8-4.4c0.6-0.4,1-1,1-1.7l0.1-9
			c0-0.7-0.4-1.4-1-1.7l-7.7-4.5c-0.6-0.4-1.4-0.4-2,0l-7.8,4.4C188.9,108.2,188.5,108.9,188.5,109.6z"/>
		<path class="st7" d="M188.5,108.4l9,4.8c0.4,0.2,0.9,0.2,1.3,0l9.2-4.7"/>
		<line class="st7" x1="198.2" y1="113.3" x2="198.1" y2="125.3"/>
	</g>
	<circle class="st7" cx="261.3" cy="114.1" r="9.7"/>
</g>
</svg>
