<?xml version="1.0" encoding="utf-8"?>
<!-- Generator: Adobe Illustrator 22.0.1, SVG Export Plug-In . SVG Version: 6.00 Build 0)  -->
<svg version="1.1" id="Layer_1" xmlns="http://www.w3.org/2000/svg" xmlns:xlink="http://www.w3.org/1999/xlink" x="0px" y="0px"
	 viewBox="0 0 400 140" style="enable-background:new 0 0 400 140;" xml:space="preserve">
<style type="text/css">
	.st0{opacity:0.1;fill:none;stroke:#013F4F;stroke-width:2;stroke-linecap:round;stroke-linejoin:round;stroke-miterlimit:10;}
	.st1{opacity:0.1;}
	.st2{fill:none;stroke:#013F4F;stroke-width:2;stroke-linecap:round;stroke-linejoin:round;stroke-miterlimit:10;}
	.st3{fill:#FFFFFF;stroke:#0083FD;stroke-width:2;stroke-miterlimit:10;}
	.st4{fill:none;stroke:#000000;stroke-width:2;stroke-miterlimit:10;}
	.st5{fill:#0083FD;stroke:#000000;stroke-width:2;stroke-miterlimit:10;}
	.st6{fill:#FFFFFF;stroke:#000000;stroke-width:2;stroke-linecap:round;stroke-linejoin:round;stroke-miterlimit:10;}
	.st7{fill:none;stroke:#000000;stroke-width:2;stroke-linecap:round;stroke-linejoin:round;stroke-miterlimit:10;}
</style>
<polyline class="st0" points="249.6,-38.4 253.7,-36.7 252.3,-31.9 257.5,-30 "/>
<path class="st0" d="M78.3,30.7c-0.6-5.4-5.2-9.5-10.7-9.5c-3.9,0-7.3,2-9.2,5.1c-0.8-0.3-1.7-0.4-2.6-0.4c-4.7,0-8.5,3.8-8.5,8.5
	c0,4.7,3.8,8.5,8.5,8.5H77c3.4,0,6.1-2.7,6.1-6.1C83.1,33.8,81.1,31.4,78.3,30.7z"/>
<g class="st1">
	<line class="st2" x1="81.7" y1="75.2" x2="81.7" y2="80.2"/>
	<line class="st2" x1="84.2" y1="77.7" x2="79.2" y2="77.7"/>
</g>
<g class="st1">
	<line class="st2" x1="334.2" y1="74.7" x2="334.2" y2="79.7"/>
	<line class="st2" x1="336.7" y1="77.2" x2="331.7" y2="77.2"/>
</g>
<polyline class="st0" points="112.4,53.2 116.7,54.3 116.2,59.2 121.6,60.3 "/>
<polygon class="st0" points="276.1,15.2 272.9,18.6 276,21.5 279.2,18.5 "/>
<path class="st0" d="M356.6,23.4c-6.6,0-12.1,4.7-13.4,10.9c-0.4-0.1-0.9-0.1-1.4-0.1c-4.6,0-8.3,3.7-8.3,8.3c0,4.5,3.5,8.1,7.9,8.3
	v0h15.1c7.6,0,13.7-6.1,13.7-13.7S364.1,23.4,356.6,23.4z"/>
<path class="st0" d="M30.6,102.9c0.6-5.4,5.2-9.5,10.7-9.5c3.9,0,7.3,2,9.2,5.1c0.8-0.3,1.7-0.4,2.6-0.4c4.7,0,8.5,3.8,8.5,8.5
	c0,4.7-3.8,8.5-8.5,8.5H31.9c-3.4,0-6.1-2.7-6.1-6.1C25.8,105.9,27.9,103.5,30.6,102.9z"/>
<g>
	<path class="st3" d="M109.8,96.4l2.8,11.6c0.2,0.7,0.7,1.2,1.4,1.4l11.5,3.4c0.7,0.2,1.4,0,1.9-0.5l8.7-8.2
		c0.5-0.5,0.7-1.2,0.6-1.9l-2.8-11.6c-0.2-0.7-0.7-1.2-1.4-1.4L121,85.8c-0.7-0.2-1.4,0-1.9,0.5l-8.7,8.2
		C109.9,95,109.6,95.7,109.8,96.4z"/>
	<path class="st3" d="M109.5,95.3l12.5,3.2c0.6,0.1,1.2,0,1.6-0.4l9.9-8.6"/>
	<line class="st3" x1="122.9" y1="98.4" x2="126.4" y2="113.1"/>
</g>
<path class="st4" d="M253.8,94.4h-97.2c-0.6,0-1-0.5-1-1V39.6c0-0.5,0.4-1,1-1h97.2c0.6,0,1,0.5,1,1v53.8
	C254.8,94,254.4,94.4,253.8,94.4z"/>
<path class="st5" d="M255.3,39.6H155.1c-1.4,0-2.5-1.1-2.5-2.5v0c0-1.4,1.1-2.5,2.5-2.5h100.2c1.4,0,2.5,1.1,2.5,2.5v0
	C257.8,38.4,256.7,39.6,255.3,39.6z"/>
<line class="st6" x1="205.2" y1="28.3" x2="205.2" y2="33.7"/>
<g>
	<line class="st6" x1="205.1" y1="94.3" x2="193.3" y2="112.3"/>
	<line class="st6" x1="205.3" y1="94.3" x2="217.1" y2="112.3"/>
</g>
<polyline class="st7" points="164.2,45.8 164.2,86.8 246.2,86.8 "/>
<g>
	<path class="st5" d="M240.2,83.3h-5c-0.5,0-1-0.4-1-1v-32c0-0.5,0.5-1,1-1h5c0.6,0,1,0.5,1,1v32C241.2,82.8,240.8,83.3,240.2,83.3z
		"/>
	<path class="st5" d="M227.2,83.3h-5c-0.5,0-1-0.4-1-1v-28c0-0.5,0.5-1,1-1h5c0.6,0,1,0.5,1,1v28C228.2,82.8,227.8,83.3,227.2,83.3z
		"/>
	<path class="st5" d="M214.2,83.3h-5c-0.5,0-1-0.4-1-1v-24c0-0.5,0.5-1,1-1h5c0.6,0,1,0.5,1,1v24C215.2,82.8,214.8,83.3,214.2,83.3z
		"/>
	<path class="st5" d="M201.2,83.3h-5c-0.5,0-1-0.4-1-1v-20c0-0.5,0.5-1,1-1h5c0.6,0,1,0.5,1,1v20C202.2,82.8,201.8,83.3,201.2,83.3z
		"/>
	<path class="st5" d="M188.2,83.3h-5c-0.5,0-1-0.4-1-1v-16c0-0.5,0.5-1,1-1h5c0.6,0,1,0.5,1,1v16C189.2,82.8,188.8,83.3,188.2,83.3z
		"/>
	<path class="st5" d="M175.2,83.3h-5c-0.5,0-1-0.4-1-1v-12c0-0.5,0.5-1,1-1h5c0.6,0,1,0.5,1,1v12C176.2,82.8,175.8,83.3,175.2,83.3z
		"/>
</g>
<g>
	<path class="st3" d="M269.3,66.5L287.9,53c1.3-1,3.2,0.2,2.9,1.8L286,78.7"/>
	<ellipse transform="matrix(0.5709 -0.821 0.821 0.5709 59.2691 258.9968)" class="st3" cx="277.4" cy="72.8" rx="3.4" ry="10.4"/>
</g>
<circle class="st3" cx="148.3" cy="55.6" r="12.3"/>
<polyline class="st0" points="314.7,106.5 312.3,110.2 307.8,108.2 305.1,112.9 "/>
</svg>
