<?xml version="1.0" encoding="utf-8"?>
<!-- Generator: Adobe Illustrator 22.0.1, SVG Export Plug-In . SVG Version: 6.00 Build 0)  -->
<svg version="1.1" id="Layer_1" xmlns="http://www.w3.org/2000/svg" xmlns:xlink="http://www.w3.org/1999/xlink" x="0px" y="0px"
	 viewBox="0 0 400 140" style="enable-background:new 0 0 400 140;" xml:space="preserve">
<style type="text/css">
	.st0{opacity:0.1;fill:none;stroke:#013F4F;stroke-width:2;stroke-linecap:round;stroke-linejoin:round;stroke-miterlimit:10;}
	.st1{fill:#0083FD;stroke:#000000;stroke-width:2;stroke-miterlimit:10;}
	.st2{fill:#FFFFFF;stroke:#000000;stroke-width:2;stroke-miterlimit:10;}
	.st3{fill:none;stroke:#0083FD;stroke-width:2;stroke-miterlimit:10;}
	.st4{opacity:0.1;}
	.st5{fill:none;stroke:#013F4F;stroke-width:2;stroke-linecap:round;stroke-linejoin:round;stroke-miterlimit:10;}
</style>
<path class="st0" d="M353.5,90.5c-6.6,0-12.1,4.7-13.4,10.9c-0.4-0.1-0.9-0.1-1.4-0.1c-4.6,0-8.3,3.7-8.3,8.3c0,4.5,3.5,8.1,7.9,8.3
	v0h15.1c7.6,0,13.7-6.1,13.7-13.7S361.1,90.5,353.5,90.5z"/>
<path class="st0" d="M126.9,32.5c0.6-5.4,5.2-9.5,10.7-9.5c3.9,0,7.3,2,9.2,5.1c0.8-0.3,1.7-0.4,2.6-0.4c4.7,0,8.5,3.8,8.5,8.5
	c0,4.7-3.8,8.5-8.5,8.5h-21.1c-3.4,0-6.1-2.7-6.1-6.1C122.1,35.6,124.2,33.1,126.9,32.5z"/>
<polyline class="st0" points="300.9,41 303.1,37.1 307.6,38.9 310.1,34 "/>
<polygon class="st0" points="325.7,77.2 322.5,80.5 325.6,83.4 328.8,80.4 "/>
<path class="st0" d="M71,101.4c-0.6-5.4-5.2-9.5-10.7-9.5c-3.9,0-7.3,2-9.2,5.1c-0.8-0.3-1.7-0.4-2.6-0.4c-4.7,0-8.5,3.8-8.5,8.5
	c0,4.7,3.8,8.5,8.5,8.5h21.1c3.4,0,6.1-2.7,6.1-6.1C75.8,104.5,73.8,102,71,101.4z"/>
<polygon class="st0" points="40.2,68 37,71.3 40.1,74.2 43.3,71.2 "/>
<polyline class="st0" points="73.2,30.3 69.5,27.9 71.6,23.4 66.8,20.6 "/>
<g>
	<path class="st1" d="M158.4,116.8l2.3-2.3c0.1-0.1,0.3-0.1,0.4,0l8.1,8.1c0.1,0.1,0.3,0.1,0.4,0l7.1-7.1c0.1-0.1,0.1-0.3,0-0.4
		l-2.8-2.8c-2.3-2.3-2.7-6-0.6-8.5c2.4-2.9,6.7-3,9.2-0.5l3,3c0.1,0.1,0.3,0.1,0.4,0l7.1-7.1c0.1-0.1,0.1-0.3,0-0.4l-8.1-8.1
		c-0.1-0.1-0.3-0.1-0.4,0l-2.3,2.3c-2.3,2.3-6,2.7-8.5,0.6c-2.9-2.4-3-6.7-0.5-9.2l2.5-2.5c0.1-0.1,0.1-0.3,0-0.4l-8.1-8.1
		c-0.1-0.1-0.3-0.1-0.4,0l-23.4,23.4c-0.1,0.1-0.1,0.3,0,0.4l8.1,8.1c0.1,0.1,0.1,0.3,0,0.4l-2.5,2.5c-2.6,2.6-2.4,6.9,0.5,9.2
		C152.4,119.5,156.1,119.1,158.4,116.8z"/>
</g>
<g>
	<path class="st1" d="M254.8,105.2l-2.5-2.5c-0.1-0.1-0.1-0.3,0-0.4l8.1-8.1c0.1-0.1,0.1-0.3,0-0.4l-23.4-23.4
		c-0.1-0.1-0.3-0.1-0.4,0l-8.1,8.1c-0.1,0.1-0.1,0.3,0,0.4l2.5,2.5c2.4,2.4,2.4,6.4,0,8.8l0,0c-2.4,2.4-6.4,2.4-8.8,0l-2.5-2.5
		c-0.1-0.1-0.3-0.1-0.4,0l-8.1,8.1c-0.1,0.1-0.1,0.3,0,0.4l7.1,7.1c0.1,0.1,0.1,0.3,0,0.4l-1.4,1.4c-2.3,2.3-2.7,6-0.6,8.5
		c2.4,2.9,6.7,3,9.2,0.5l1.6-1.6c0.1-0.1,0.3-0.1,0.4,0l7.1,7.1c0.1,0.1,0.3,0.1,0.4,0l8.1-8.1c0.1-0.1,0.3-0.1,0.4,0l2.5,2.5
		c2.4,2.4,6.4,2.4,8.8,0l0,0C257.2,111.6,257.2,107.6,254.8,105.2z"/>
</g>
<g>
	<path class="st2" d="M212.5,55.1l-2.5-2.5c-0.1-0.1-0.1-0.3,0-0.4l8.1-8.1c0.1-0.1,0.1-0.3,0-0.4l-23.4-23.4
		c-0.1-0.1-0.3-0.1-0.4,0l-25.4,25.4c-0.1,0.1-0.1,0.3,0,0.4l7.1,7.1c0.1,0.1,0.1,0.3,0,0.4l-1.4,1.4c-2.3,2.3-2.7,6-0.6,8.5
		c2.4,2.9,6.7,3,9.2,0.5l1.6-1.6c0.1-0.1,0.3-0.1,0.4,0l7.1,7.1c0.1,0.1,0.3,0.1,0.4,0l8.1-8.1c0.1-0.1,0.3-0.1,0.4,0l2.5,2.5
		c2.4,2.4,6.4,2.4,8.8,0l0,0C215,61.5,215,57.5,212.5,55.1z"/>
</g>
<g>
	<path class="st3" d="M103.5,81.6l-2.3-22.3c-0.2-1.6,1.7-2.6,3-1.5L122,73.5"/>
	<ellipse transform="matrix(0.9047 -0.426 0.426 0.9047 -22.4232 55.4871)" class="st3" cx="112.8" cy="77.9" rx="10.2" ry="3.4"/>
</g>
<g>
	<path class="st3" d="M276.2,82.4l-4,8.9c-0.3,0.7-0.2,1.4,0.2,2l5.8,7.9c0.4,0.6,1.1,0.9,1.8,0.8l9.7-1c0.7-0.1,1.3-0.5,1.6-1.2
		l4-8.9c0.3-0.7,0.2-1.4-0.2-2l-5.8-7.9c-0.4-0.6-1.1-0.9-1.8-0.8l-9.7,1C277.1,81.3,276.5,81.7,276.2,82.4z"/>
	<path class="st3" d="M276.7,81.3l6.8,8.6c0.3,0.4,0.8,0.6,1.3,0.6l11.1-0.7"/>
	<line class="st3" x1="284.1" y1="90.2" x2="278.9" y2="101.9"/>
</g>
<circle class="st3" cx="243.8" cy="25.7" r="9.9"/>
<g class="st4">
	<line class="st5" x1="366.3" y1="25.3" x2="366.3" y2="30.3"/>
	<line class="st5" x1="368.8" y1="27.8" x2="363.8" y2="27.8"/>
</g>
</svg>
