<?xml version="1.0" encoding="utf-8"?>
<!-- Generator: Adobe Illustrator 22.0.1, SVG Export Plug-In . SVG Version: 6.00 Build 0)  -->
<svg version="1.1" id="Layer_1" xmlns="http://www.w3.org/2000/svg" xmlns:xlink="http://www.w3.org/1999/xlink" x="0px" y="0px"
	 viewBox="0 0 400 140" style="enable-background:new 0 0 400 140;" xml:space="preserve">
<style type="text/css">
	.st0{opacity:0.1;}
	.st1{fill:none;stroke:#013F4F;stroke-width:2;stroke-linecap:round;stroke-linejoin:round;stroke-miterlimit:10;}
	.st2{opacity:0.1;fill:none;stroke:#013F4F;stroke-width:2;stroke-linecap:round;stroke-linejoin:round;stroke-miterlimit:10;}
	.st3{fill:none;stroke:#000000;stroke-width:2;stroke-linecap:round;stroke-miterlimit:10;stroke-dasharray:0,6;}
	.st4{fill:#0083FD;stroke:#000000;stroke-width:2;stroke-miterlimit:10;}
	.st5{fill:#FFFFFF;stroke:#000000;stroke-width:2;stroke-linecap:round;stroke-linejoin:round;stroke-miterlimit:10;}
	.st6{fill:#FFFFFF;stroke:#000000;stroke-width:2;stroke-miterlimit:10;}
	.st7{fill:none;stroke:#0083FD;stroke-width:2;stroke-linecap:round;stroke-linejoin:round;stroke-miterlimit:10;}
	.st8{fill:none;stroke:#000000;stroke-width:2;stroke-linecap:round;stroke-linejoin:round;stroke-miterlimit:10;}
	.st9{fill:none;stroke:#0083FD;stroke-width:2;stroke-miterlimit:10;}
</style>
<g class="st0">
	<line class="st1" x1="361.2" y1="67.6" x2="361.2" y2="72.6"/>
	<line class="st1" x1="363.7" y1="70.1" x2="358.7" y2="70.1"/>
</g>
<g class="st0">
	<line class="st1" x1="82.5" y1="110.6" x2="82.5" y2="115.6"/>
	<line class="st1" x1="85" y1="113.1" x2="80" y2="113.1"/>
</g>
<polyline class="st2" points="47.2,25.1 46.9,20.7 51.7,19.7 51.1,14.2 "/>
<polyline class="st2" points="284.3,82.5 286.4,78.6 291,80.4 293.5,75.5 "/>
<polyline class="st2" points="16.9,110 19,106.1 23.6,107.9 26.1,103 "/>
<polygon class="st2" points="303,34.5 299.8,37.8 302.9,40.7 306,37.7 "/>
<polygon class="st2" points="118.9,86.7 115.7,90 118.8,92.9 121.9,89.9 "/>
<polygon class="st2" points="238.6,122.9 235.1,126.6 238.5,129.8 242,126.5 "/>
<path class="st3" d="M193.4,67.6"/>
<path class="st3" d="M193.4,71.2"/>
<path class="st2" d="M45.6,60.3c0.6-5.4,5.2-9.5,10.7-9.5c3.9,0,7.3,2,9.2,5.1c0.8-0.3,1.7-0.4,2.6-0.4c4.7,0,8.5,3.8,8.5,8.5
	c0,4.7-3.8,8.5-8.5,8.5H46.9c-3.4,0-6.1-2.7-6.1-6.1C40.8,63.4,42.9,60.9,45.6,60.3z"/>
<path class="st2" d="M363.8,15.5c-6.6,0-12.1,4.7-13.4,10.9c-0.4-0.1-0.9-0.1-1.4-0.1c-4.6,0-8.3,3.7-8.3,8.3c0,4.5,3.5,8.1,7.9,8.3
	v0h15.1c7.6,0,13.7-6.1,13.7-13.7S371.4,15.5,363.8,15.5z"/>
<path class="st2" d="M348.5,98.9c-0.8-6.8-6.6-12.1-13.6-12.1c-4.9,0-9.2,2.6-11.6,6.5c-1-0.3-2.1-0.5-3.3-0.5
	c-5.9,0-10.7,4.8-10.7,10.7c0,5.9,4.8,10.7,10.7,10.7h26.8c4.3,0,7.7-3.5,7.7-7.7C354.5,102.8,351.9,99.7,348.5,98.9z"/>
<polygon class="st2" points="140.8,11.6 137.6,14.9 140.7,17.8 143.9,14.8 "/>
<g>
	<g>
		<path class="st4" d="M195.9,22.1H223c1.8,0,3.6,1.7,3.6,3.5v85.6c0,1.8-1.8,3.6-3.6,3.6h-66.4c-1.8,0-3.4-1.8-3.4-3.6V25.7
			c0-1.8,1.6-3.5,3.4-3.5h26.7"/>
		<polyline class="st5" points="213.5,31.1 219.7,31.1 219.7,108.7 159.5,108.7 159.5,31.1 165.7,31.1 		"/>
		<path class="st5" d="M210.1,27h-12.7c0,0,0-0.4,0-0.5c0-4.2-3.4-7.7-7.6-7.7c-4.2,0-7.6,3.5-7.6,7.7c0,0.1,0,0.5,0,0.5h-12.6
			c-1.8,0-3.9,1.2-3.9,3v5.4h47.8v-5.4C213.5,28.1,211.9,27,210.1,27z M189.9,28.9c-1.4,0-2.6-1.1-2.6-2.6c0-1.4,1.1-2.6,2.6-2.6
			c1.4,0,2.6,1.1,2.6,2.6C192.4,27.7,191.3,28.9,189.9,28.9z"/>
	</g>
	<g>
		<circle class="st6" cx="189.9" cy="56.9" r="11"/>
		<polyline class="st7" points="184.6,58.3 187.1,60.8 195.5,52.4 		"/>
	</g>
	<line class="st8" x1="176.8" y1="76.1" x2="203.8" y2="76.1"/>
	<line class="st8" x1="172.6" y1="86.5" x2="207.2" y2="86.5"/>
	<line class="st8" x1="177.5" y1="95.5" x2="201.7" y2="95.5"/>
</g>
<g>
	<path class="st9" d="M108,41.3l-4.9,10.1c-0.3,0.6-0.3,1.4,0.1,2l6.3,9.3c0.4,0.6,1.1,0.9,1.8,0.9l11.2-0.8
		c0.7-0.1,1.3-0.5,1.7-1.1l4.9-10.1c0.3-0.6,0.3-1.4-0.1-2l-6.3-9.3c-0.4-0.6-1.1-0.9-1.8-0.9l-11.2,0.8
		C109,40.2,108.3,40.7,108,41.3z"/>
	<path class="st9" d="M108.5,40.3l7.3,9.9c0.3,0.5,0.9,0.7,1.4,0.7l12.5-0.3"/>
	<line class="st9" x1="116.5" y1="50.6" x2="110.2" y2="63.6"/>
</g>
<circle class="st9" cx="258" cy="29" r="11.7"/>
<g>
	<path class="st9" d="M254.9,112.7L252.1,91c-0.2-1.6,1.6-2.6,2.8-1.6l17.8,14.9"/>
	
		<ellipse transform="matrix(0.8943 -0.4474 0.4474 0.8943 -20.7903 129.5628)" class="st9" cx="263.9" cy="108.8" rx="9.9" ry="3.3"/>
</g>
</svg>
