<?xml version="1.0" encoding="utf-8"?>
<!-- Generator: Adobe Illustrator 22.0.1, SVG Export Plug-In . SVG Version: 6.00 Build 0)  -->
<svg version="1.1" id="Layer_1" xmlns="http://www.w3.org/2000/svg" xmlns:xlink="http://www.w3.org/1999/xlink" x="0px" y="0px"
	 viewBox="0 0 400 140" style="enable-background:new 0 0 400 140;" xml:space="preserve">
<style type="text/css">
	.st0{fill:#0083FD;}
	.st1{fill:none;stroke:#0083FD;stroke-width:2;stroke-linecap:round;stroke-linejoin:round;stroke-dasharray:0,4.9634,0,0,0,0;}
	.st2{fill:none;stroke:#0083FD;stroke-width:2;stroke-linecap:round;stroke-linejoin:round;}
	.st3{fill:none;stroke:#0083FD;stroke-width:2;stroke-linecap:round;stroke-linejoin:round;stroke-dasharray:0,5.277,0,0,0,0;}
	.st4{fill:none;stroke:#0083FD;stroke-width:2;stroke-linecap:round;stroke-linejoin:round;stroke-dasharray:0,5.7975,0,0,0,0;}
	.st5{fill:none;stroke:#0083FD;stroke-width:2;stroke-miterlimit:10;}
	
		.st6{opacity:0.1;fill:none;stroke:#013F4F;stroke-width:2;stroke-linecap:round;stroke-linejoin:round;stroke-miterlimit:10;enable-background:new    ;}
	.st7{fill:none;stroke:#000000;stroke-width:2;stroke-linejoin:round;stroke-miterlimit:10;}
	.st8{fill:none;stroke:#000000;stroke-width:2;stroke-linecap:round;stroke-linejoin:round;stroke-miterlimit:10;}
</style>
<rect x="121.8" y="17" class="st0" width="12" height="116"/>
<rect x="110.8" y="26" class="st0" width="73" height="11"/>
<g>
	<g>
		<path class="st1" d="M206.7,41.4v16.1c0,0.7,0.4,1.4,1,1.7l14,8.1c0.6,0.4,1.4,0.4,2,0l14-8.1c0.6-0.4,1-1,1-1.7V41.4
			c0-0.7-0.4-1.4-1-1.7l-14-8.1c-0.6-0.4-1.4-0.4-2,0l-14,8.1C207.1,40,206.7,40.7,206.7,41.4z"/>
	</g>
	<g>
		<g>
			<line class="st2" x1="211.4" y1="43.2" x2="211.4" y2="43.2"/>
			<path class="st3" d="M216.1,45.5l5.3,2.5c0.7,0.4,1.5,0.4,2.2,0l12-5.1"/>
			<line class="st2" x1="235.5" y1="42.9" x2="235.5" y2="42.9"/>
		</g>
	</g>
	<g>
		<g>
			<line class="st2" x1="222.6" y1="51.2" x2="222.6" y2="51.2"/>
			<line class="st4" x1="222.6" y1="57" x2="222.5" y2="62.8"/>
			<line class="st2" x1="222.5" y1="62.8" x2="222.5" y2="62.8"/>
		</g>
	</g>
</g>
<circle class="st5" cx="231.6" cy="93.4" r="16.4"/>
<g>
	<path class="st5" d="M254.9,69.7l12-37.4c0.9-2.7,4.7-2.7,5.7-0.1l13.6,38.2"/>
	<path class="st0" d="M269.4,66.9L269.4,66.9c0.4,0,0.8,0,1.2,0c9.5,0.2,14.8,2.9,15,4c-0.2,0.9-4.8,3.4-14,3.4c-0.4,0-0.8,0-1.2,0
		c-9.5-0.2-14.8-2.9-15-4C255.6,69.4,260.2,66.9,269.4,66.9 M269.4,64.9c-8.9,0-15.9,2.3-16,5.3c-0.1,3.1,7.5,5.9,17,6.1
		c0.4,0,0.8,0,1.2,0c8.9,0,15.9-2.3,16-5.3c0.1-3.1-7.5-5.9-17-6.1C270.2,64.9,269.8,64.9,269.4,64.9L269.4,64.9z"/>
</g>
<path class="st6" d="M79.5,76.2c-0.8-6.8-6.6-12.1-13.6-12.1c-4.9,0-9.2,2.6-11.6,6.5c-1-0.3-2.1-0.5-3.3-0.5
	c-5.9,0-10.7,4.8-10.7,10.7c0,5.9,4.8,10.7,10.7,10.7h26.8c4.3,0,7.7-3.5,7.7-7.7C85.5,80,82.9,77,79.5,76.2z"/>
<path class="st6" d="M301.6,23.4c0.6-5.4,5.2-9.5,10.7-9.5c3.9,0,7.3,2,9.2,5.1c0.8-0.3,1.7-0.4,2.6-0.4c4.7,0,8.5,3.8,8.5,8.5
	s-3.8,8.5-8.5,8.5H303c-3.4,0-6.1-2.7-6.1-6.1C296.8,26.4,298.9,24,301.6,23.4z"/>
<polygon class="st6" points="341.8,66.7 338.6,70.1 341.7,73 344.8,70 "/>
<polyline class="st6" points="368.4,24.3 370.5,20.4 375.1,22.2 377.6,17.3 "/>
<polyline class="st6" points="268.4,121.3 270.5,117.4 275.1,119.2 277.6,114.3 "/>
<polygon class="st6" points="94.3,44 91.2,47.4 94.3,50.3 97.4,47.3 "/>
<path class="st6" d="M367.6,97.2c-6.6,0-12.1,4.7-13.4,10.9c-0.4-0.1-0.9-0.1-1.4-0.1c-4.6,0-8.3,3.7-8.3,8.3c0,4.5,3.5,8.1,7.9,8.3
	l0,0h15.1c7.6,0,13.7-6.1,13.7-13.7S375.1,97.2,367.6,97.2z"/>
<polyline class="st6" points="24.2,113.5 26.3,109.6 30.9,111.5 33.4,106.6 "/>
<polygon class="st6" points="32.1,23.2 28.9,26.5 32,29.4 35.2,26.4 "/>
<line class="st7" x1="121" y1="37.2" x2="133.9" y2="37.2"/>
<rect x="110.6" y="26.8" class="st8" width="73.2" height="10.5"/>
<polyline class="st8" points="133.9,37.2 121.1,57.2 133.9,57.2 122.4,75.1 133.9,75.1 122.1,93.6 133.9,93.6 121.3,113.4 
	133.9,113.4 122.1,131.8 133.9,131.8 "/>
<g>
	<rect x="166.5" y="30.5" width="13.7" height="9.3"/>
	<path class="st5" d="M178,53.7c0,0,0,4.7-4.7,4.7s-4.7-4.7-4.7-4.7V39.4h9.4V53.7z"/>
	<line class="st5" x1="173.3" y1="58.3" x2="173.3" y2="64.2"/>
	<path class="st5" d="M177.5,69.4c0,2.3-1.9,4.2-4.2,4.2s-4.2-1.9-4.2-4.2c0-2.3,1.9-4.2,4.2-4.2"/>
</g>
<rect x="121" y="17.4" class="st8" width="12.8" height="115"/>
<g>
	<path class="st5" d="M157.7,80.4v15.7c0,0.7,0.4,1.4,1,1.7l13.6,7.9c0.6,0.4,1.4,0.4,2,0l13.6-7.9c0.6-0.4,1-1,1-1.7V80.4
		c0-0.7-0.4-1.4-1-1.7l-13.6-7.9c-0.6-0.4-1.4-0.4-2,0l-13.6,7.9C158.1,79,157.7,79.7,157.7,80.4z"/>
	<path class="st5" d="M157.7,79.2l14.4,7.6c0.7,0.3,1.5,0.4,2.1,0l14.7-7.6"/>
	<line class="st5" x1="173.2" y1="87" x2="173.2" y2="106.1"/>
</g>
</svg>
