<?xml version="1.0" encoding="utf-8"?>
<!-- Generator: Adobe Illustrator 22.0.1, SVG Export Plug-In . SVG Version: 6.00 Build 0)  -->
<svg version="1.1" id="Layer_1" xmlns="http://www.w3.org/2000/svg" xmlns:xlink="http://www.w3.org/1999/xlink" x="0px" y="0px"
	 viewBox="0 0 400 140" style="enable-background:new 0 0 400 140;" xml:space="preserve">
<style type="text/css">
	.st0{opacity:0.1;fill:none;stroke:#013F4F;stroke-width:2;stroke-linecap:round;stroke-linejoin:round;stroke-miterlimit:10;}
	.st1{opacity:0.1;}
	.st2{fill:none;stroke:#013F4F;stroke-width:2;stroke-linecap:round;stroke-linejoin:round;stroke-miterlimit:10;}
	.st3{fill:none;stroke:#0083FD;stroke-width:2;stroke-linecap:round;stroke-linejoin:round;stroke-miterlimit:10;}
	.st4{fill:none;stroke:#0083FD;stroke-width:2;stroke-miterlimit:10;}
	.st5{fill:none;stroke:#000000;stroke-width:2;stroke-linecap:round;stroke-linejoin:round;stroke-miterlimit:10;}
	.st6{fill:#0083FD;stroke:#000000;stroke-width:2;stroke-miterlimit:10;}
	.st7{fill:#FFFFFF;stroke:#000000;stroke-width:2;stroke-linecap:round;stroke-linejoin:round;stroke-miterlimit:10;}
</style>
<path class="st0" d="M60,110.3c-0.6-5.4-5.2-9.5-10.7-9.5c-3.9,0-7.3,2-9.2,5.1c-0.8-0.3-1.7-0.4-2.6-0.4c-4.7,0-8.5,3.8-8.5,8.5
	c0,4.7,3.8,8.5,8.5,8.5h21.1c3.4,0,6.1-2.7,6.1-6.1C64.7,113.4,62.7,111,60,110.3z"/>
<g class="st1">
	<line class="st2" x1="87.5" y1="22.5" x2="87.5" y2="27.5"/>
	<line class="st2" x1="90" y1="25" x2="85" y2="25"/>
</g>
<g class="st1">
	<line class="st2" x1="179.3" y1="120.3" x2="179.3" y2="125.3"/>
	<line class="st2" x1="181.8" y1="122.8" x2="176.8" y2="122.8"/>
</g>
<g class="st1">
	<line class="st2" x1="299" y1="62.5" x2="299" y2="67.5"/>
	<line class="st2" x1="301.5" y1="65" x2="296.5" y2="65"/>
</g>
<polyline class="st0" points="80.5,69.5 84.6,71.2 83.3,76 88.4,77.9 "/>
<polyline class="st0" points="360.2,32.1 356.8,35 359.5,39.1 355.2,42.5 "/>
<polygon class="st0" points="305,116.5 301.8,119.8 304.9,122.7 308.1,119.7 "/>
<polygon class="st0" points="37.3,38.7 34.2,42.1 37.2,45 40.4,42 "/>
<polygon class="st0" points="150.1,45.7 147,49.1 150.1,52 153.2,49 "/>
<path class="st0" d="M338.1,82.9c0.6-5.4,5.2-9.5,10.7-9.5c3.9,0,7.3,2,9.2,5.1c0.8-0.3,1.7-0.4,2.6-0.4c4.7,0,8.5,3.8,8.5,8.5
	c0,4.7-3.8,8.5-8.5,8.5h-21.1c-3.4,0-6.1-2.7-6.1-6.1C333.3,85.9,335.4,83.5,338.1,82.9z"/>
<path class="st0" d="M270,17.4c-6.6,0-12.1,4.7-13.4,10.9c-0.4-0.1-0.9-0.1-1.4-0.1c-4.6,0-8.3,3.7-8.3,8.3c0,4.5,3.5,8.1,7.9,8.3v0
	H270c7.6,0,13.7-6.1,13.7-13.7S277.5,17.4,270,17.4z"/>
<g>
	<path class="st3" d="M150.8,110l-5.4-15.5c-0.4-1.1,0.8-2.2,1.8-1.6l15.4,8.2"/>
	
		<ellipse transform="matrix(0.7821 -0.6232 0.6232 0.7821 -31.7344 120.7233)" class="st3" cx="156.7" cy="105.7" rx="7.4" ry="2.5"/>
</g>
<g>
	<path class="st4" d="M192.2,25l-3.5,7.1c-0.3,0.6-0.3,1.4,0.1,2l4.4,6.6c0.4,0.6,1.1,0.9,1.8,0.9l7.9-0.6c0.7-0.1,1.3-0.5,1.7-1.1
		l3.5-7.1c0.3-0.6,0.3-1.4-0.1-2l-4.4-6.6c-0.4-0.6-1.1-0.9-1.8-0.9l-7.9,0.6C193.1,23.9,192.5,24.3,192.2,25z"/>
	<path class="st4" d="M192.7,23.9l5.5,7.5c0.3,0.3,0.7,0.5,1.1,0.5l9.4-0.2"/>
	<line class="st4" x1="198.6" y1="31.7" x2="193.9" y2="41.5"/>
</g>
<circle class="st4" cx="231.9" cy="94.3" r="8.8"/>
<path class="st5" d="M151.2,69.9h-27.4c-4.9,0-8.8-3.9-8.8-8.8V-6.3"/>
<path class="st5" d="M228.9,70.1h28.4c4.9,0,8.8,3.9,8.8,8.8v67.4"/>
<g>
	<polygon class="st6" points="226,66.6 226,73.5 212,74.7 212,65.4 	"/>
	<path class="st6" d="M226,64.6c1.1,0,2.1,0.9,2.1,2.1v6.7c0,1.1-0.9,2.1-2.1,2.1l0,0c-1.1,0-2.1-0.9-2.1-2.1v-6.7
		C223.9,65.6,224.8,64.6,226,64.6L226,64.6z"/>
	<path class="st6" d="M199.6,81.7H211c4.8,0,8.7-3.9,8.7-8.7v-5.9c0-4.8-3.9-8.7-8.7-8.7h-11.3V81.7z"/>
</g>
<g>
	<polygon class="st6" points="154.1,73.5 154.1,66.6 168,65.4 168,74.7 	"/>
	<g>
		<path class="st7" d="M173.5,67.9c-1.2,0-2.1-0.9-2.1-2.1l0,0c0-1.2,0.9-2.1,2.1-2.1h18.6c1.2,0,2.1,0.9,2.1,2.1l0,0
			c0,1.2-0.9,2.1-2.1,2.1H173.5z"/>
		<path class="st7" d="M173.5,76.5c-1.2,0-2.1-0.9-2.1-2.1l0,0c0-1.2,0.9-2.1,2.1-2.1h18.6c1.2,0,2.1,0.9,2.1,2.1l0,0
			c0,1.2-0.9,2.1-2.1,2.1H173.5z"/>
	</g>
	<path class="st6" d="M154.1,75.5c-1.1,0-2.1-0.9-2.1-2.1v-6.7c0-1.1,0.9-2.1,2.1-2.1l0,0c1.1,0,2.1,0.9,2.1,2.1v6.7
		C156.1,74.6,155.2,75.5,154.1,75.5L154.1,75.5z"/>
	<path class="st6" d="M180.4,58.5h-11.3c-4.8,0-8.7,3.9-8.7,8.7V73c0,4.8,3.9,8.7,8.7,8.7h11.3V58.5z"/>
</g>
</svg>
