<?xml version="1.0" encoding="utf-8"?>
<!-- Generator: Adobe Illustrator 22.0.1, SVG Export Plug-In . SVG Version: 6.00 Build 0)  -->
<svg version="1.1" id="Layer_1" xmlns="http://www.w3.org/2000/svg" xmlns:xlink="http://www.w3.org/1999/xlink" x="0px" y="0px"
	 viewBox="0 0 400 140" style="enable-background:new 0 0 400 140;" xml:space="preserve">
<style type="text/css">
	.st0{fill:#0083FD;stroke:#000000;stroke-width:2;stroke-miterlimit:10;}
	.st1{fill:#0083FD;}
	.st2{opacity:0.1;}
	.st3{fill:none;stroke:#013F4F;stroke-width:2;stroke-linecap:round;stroke-miterlimit:10;}
	.st4{opacity:0.1;fill:none;stroke:#013F4F;stroke-width:2;stroke-linecap:round;stroke-miterlimit:10;}
	.st5{opacity:0.1;fill:none;stroke:#013F4F;stroke-width:2;stroke-linejoin:round;stroke-miterlimit:10;}
	.st6{fill:none;stroke:#0083FD;stroke-width:2;stroke-miterlimit:10;}
	.st7{fill:none;stroke:#000000;stroke-width:2;stroke-linecap:round;stroke-miterlimit:10;stroke-dasharray:0,6;}
	.st8{fill:none;stroke:#000000;stroke-width:2;stroke-miterlimit:10;}
	.st9{fill:none;stroke:#000000;stroke-width:2;stroke-linecap:round;stroke-miterlimit:10;stroke-dasharray:0.25,5,0.25,5,0.25,5;}
	.st10{fill:none;stroke:#000000;stroke-width:2;stroke-linecap:round;stroke-linejoin:round;stroke-miterlimit:10;}
</style>
<circle class="st0" cx="275.4" cy="67.4" r="13.7"/>
<rect x="103.4" y="20.2" class="st1" width="134" height="10"/>
<rect x="244.4" y="21.2" class="st1" width="59" height="9"/>
<rect x="244.4" y="100.2" class="st1" width="59" height="14"/>
<g class="st2">
	<line class="st3" x1="371.3" y1="94.5" x2="371.3" y2="99.5"/>
	<line class="st3" x1="373.8" y1="97" x2="368.8" y2="97"/>
</g>
<g class="st2">
	<line class="st3" x1="258.3" y1="5.2" x2="258.3" y2="10.2"/>
	<line class="st3" x1="260.8" y1="7.7" x2="255.8" y2="7.7"/>
</g>
<g class="st2">
	<line class="st3" x1="70.8" y1="47.5" x2="70.8" y2="52.5"/>
	<line class="st3" x1="73.3" y1="50" x2="68.3" y2="50"/>
</g>
<polyline class="st4" points="21.5,21 23.6,17.1 28.2,18.9 30.7,14 "/>
<polyline class="st4" points="333.2,59.8 335.4,55.9 339.9,57.7 342.5,52.8 "/>
<polyline class="st4" points="316.2,126.1 318.4,122.2 322.9,124 325.5,119.1 "/>
<polyline class="st4" points="154.6,133.8 156.7,129.9 161.3,131.7 163.8,126.8 "/>
<polyline class="st4" points="36.2,107.5 38.4,103.5 42.9,105.4 45.5,100.5 "/>
<polygon class="st5" points="363.2,14.5 360,17.8 363.1,20.7 366.3,17.7 "/>
<polygon class="st5" points="77.5,113.1 74.4,116.5 77.4,119.4 80.6,116.4 "/>
<polygon class="st5" points="23.1,57 19.9,60.4 23,63.3 26.2,60.3 "/>
<circle class="st6" cx="167.4" cy="69.2" r="10.7"/>
<path class="st6" d="M198.1,78.5l6.2-19.8c0.5-1.4,2.5-1.5,3-0.1l7.4,20.2"/>
<ellipse transform="matrix(1.471861e-02 -0.9999 0.9999 1.471861e-02 125.9117 282.6302)" class="st6" cx="206.4" cy="77.4" rx="2.7" ry="8"/>
<path class="st7" d="M185.5,67.2"/>
<path class="st7" d="M198.6,70.4"/>
<polyline class="st8" points="277.6,60.7 275.4,67.4 283.1,72.4 "/>
<line class="st9" x1="151.8" y1="68.9" x2="142.9" y2="68.9"/>
<line class="st9" x1="193.9" y1="68.9" x2="183" y2="68.9"/>
<g>
	<path class="st6" d="M116.9,64.6l0,10.1c0,0.7,0.4,1.4,1,1.7l8.7,5c0.6,0.4,1.4,0.4,2,0l8.7-5c0.6-0.4,1-1,1-1.7l0-10.1
		c0-0.7-0.4-1.4-1-1.7l-8.7-5c-0.6-0.4-1.4-0.4-2,0l-8.7,5C117.3,63.2,116.9,63.9,116.9,64.6z"/>
	<path class="st6" d="M116.9,63.4l9.9,5.2c0.5,0.2,1,0.2,1.5,0l10.1-5.2"/>
	<line class="st6" x1="127.5" y1="68.7" x2="127.5" y2="81.8"/>
</g>
<g>
	<g>
		<rect x="273.3" y="71.6" transform="matrix(1.685124e-03 -1 1 1.685124e-03 173.185 374.7765)" width="2" height="58.2"/>
	</g>
	<g>
		<rect x="273.4" y="1.4" transform="matrix(1.685124e-03 -1 1 1.685124e-03 243.4856 304.8279)" width="2" height="58.2"/>
	</g>
	<g>
		<path d="M272.8,26.8c-0.5,0-1-0.4-1-1c0-0.5,0.4-1,1-1l10.9,0c0,0,0,0,0,0c0.5,0,1,0.4,1,1c0,0.5-0.4,1-1,1L272.8,26.8
			C272.8,26.8,272.8,26.8,272.8,26.8z"/>
	</g>
	<g>
		<path d="M264.8,26.7c-0.5,0-1-0.4-1-1c0-0.5,0.4-1,1-1l5.2,0c0,0,0,0,0,0c0.5,0,1,0.4,1,1c0,0.5-0.4,1-1,1L264.8,26.7
			C264.8,26.7,264.8,26.7,264.8,26.7z"/>
	</g>
</g>
<g>
	<rect x="169.1" y="-36.7" transform="matrix(1.685124e-03 -1 1 1.685124e-03 139.3565 200.5232)" width="2" height="134.3"/>
</g>
<circle class="st10" cx="109.4" cy="25.6" r="1.9"/>
<g>
	<path d="M274.4,111.4c-2.2,0-4-1.8-4-4c0-1.1,0.4-2.1,1.2-2.8c0.8-0.8,1.8-1.2,2.8-1.2c0,0,0,0,0,0c1.1,0,2.1,0.4,2.8,1.2
		c0.8,0.8,1.2,1.8,1.2,2.8l0,0C278.4,109.6,276.6,111.4,274.4,111.4C274.4,111.4,274.4,111.4,274.4,111.4z M274.4,105.3
		C274.4,105.3,274.4,105.3,274.4,105.3c-0.6,0-1.1,0.2-1.5,0.6c-0.4,0.4-0.6,0.9-0.6,1.5c0,1.1,0.9,2.1,2.1,2.1c0,0,0,0,0,0
		c1.1,0,2.1-0.9,2.1-2.1l0,0c0-0.6-0.2-1.1-0.6-1.5C275.5,105.5,275,105.3,274.4,105.3z"/>
</g>
<path d="M236.2,72.2l-0.1,41.4l-132.3-0.1l0.1-35.3l-0.1-15l0.1-41.4l132.3,0.1l-0.1,43.8h2l0.1-43.8c0-0.5-0.2-1-0.6-1.4
	c-0.4-0.4-0.9-0.6-1.4-0.6c0,0,0,0,0,0L104,19.9c-0.5,0-1,0.2-1.4,0.6c-0.4,0.4-0.6,0.9-0.6,1.4l-0.1,41.4l0.1,15l-0.1,35.3
	c0,0.5,0.2,1,0.6,1.4c0.4,0.4,0.9,0.6,1.4,0.6c0,0,0,0,0,0l132.3,0.1c1.1,0,2-0.9,2-2l0.1-41.4H236.2z"/>
<line class="st9" x1="218.2" y1="68.9" x2="254.6" y2="68.9"/>
<path d="M303.9,20.5c-0.4-0.4-0.9-0.6-1.4-0.6c0,0,0,0,0,0l-56.2-0.1c-0.5,0-1,0.2-1.4,0.6c-0.4,0.4-0.6,0.9-0.6,1.4l-0.1,41.4
	l0,2.5h2l0-2.5l0.1-41.4l56.2,0.1l-0.2,91.7l-56.2-0.1l0.1-35.3l0-6h-2l0,6l-0.1,35.3c0,0.5,0.2,1,0.6,1.4c0.4,0.4,0.9,0.6,1.4,0.6
	c0,0,0,0,0,0l56.2,0.1c1.1,0,2-0.9,2-2l0.2-91.7C304.5,21.4,304.3,20.9,303.9,20.5z"/>
</svg>
