<?xml version="1.0" encoding="utf-8"?>
<!-- Generator: Adobe Illustrator 22.0.1, SVG Export Plug-In . SVG Version: 6.00 Build 0)  -->
<svg version="1.1" id="Layer_1" xmlns="http://www.w3.org/2000/svg" xmlns:xlink="http://www.w3.org/1999/xlink" x="0px" y="0px"
	 viewBox="0 0 400 140" style="enable-background:new 0 0 400 140;" xml:space="preserve">
<style type="text/css">
	.st0{opacity:0.1;fill:none;stroke:#013F4F;stroke-width:2;stroke-linecap:round;stroke-linejoin:round;stroke-miterlimit:10;}
	.st1{opacity:0.1;}
	.st2{fill:none;stroke:#013F4F;stroke-width:2;stroke-linecap:round;stroke-linejoin:round;stroke-miterlimit:10;}
	.st3{fill:#0083FD;stroke:#000000;stroke-width:2;stroke-miterlimit:10;}
	.st4{fill:#FFFFFF;stroke:#000000;stroke-width:2;stroke-miterlimit:10;}
	.st5{fill:#FFFFFF;stroke:#0083FD;stroke-width:2;stroke-miterlimit:10;}
</style>
<path class="st0" d="M90.4,29.2c-0.6-5.4-5.2-9.5-10.7-9.5c-3.9,0-7.3,2-9.2,5.1c-0.8-0.3-1.7-0.4-2.6-0.4c-4.7,0-8.5,3.8-8.5,8.5
	c0,4.7,3.8,8.5,8.5,8.5h21.1c3.4,0,6.1-2.7,6.1-6.1C95.2,32.3,93.1,29.9,90.4,29.2z"/>
<g class="st1">
	<line class="st2" x1="321.3" y1="24.2" x2="321.3" y2="29.2"/>
	<line class="st2" x1="323.8" y1="26.7" x2="318.8" y2="26.7"/>
</g>
<g class="st1">
	<line class="st2" x1="66" y1="104.7" x2="66" y2="109.7"/>
	<line class="st2" x1="68.5" y1="107.2" x2="63.5" y2="107.2"/>
</g>
<polyline class="st0" points="351.1,111.1 355.2,112.8 353.9,117.5 359,119.5 "/>
<polyline class="st0" points="27,48.5 24.5,52.2 20.1,49.9 17.1,54.5 "/>
<polygon class="st0" points="188.5,15.7 185.3,19.1 188.4,22 191.6,19 "/>
<polygon class="st0" points="115.3,60.2 112.2,63.5 115.2,66.4 118.4,63.4 "/>
<path class="st0" d="M140.6,97.9c-6.6,0-12.1,4.7-13.4,10.9c-0.4-0.1-0.9-0.1-1.4-0.1c-4.6,0-8.3,3.7-8.3,8.3c0,4.5,3.5,8.1,7.9,8.3
	v0h15.1c7.6,0,13.7-6.1,13.7-13.7S148.2,97.9,140.6,97.9z"/>
<g>
	<path class="st3" d="M168.2,42v56.6c0,5.8,12.9,10.5,29,10.6v0h0.4c16.2,0,29.4-4.8,29.4-10.6V42"/>
	<path class="st3" d="M197.6,42"/>
	<ellipse class="st3" cx="197.6" cy="42" rx="29.4" ry="10.6"/>
	<g>
		<path class="st3" d="M226.9,60.7c0,5.9-13.1,10.6-29.4,10.6s-29.4-4.8-29.4-10.6"/>
		<path class="st3" d="M226.9,98.6c0,5.9-13.1,10.6-29.4,10.6s-29.4-4.8-29.4-10.6"/>
		<path class="st3" d="M226.9,41.8c0,5.9-13.1,10.6-29.4,10.6s-29.4-4.8-29.4-10.6"/>
		<path class="st3" d="M226.9,79.7c0,5.9-13.1,10.6-29.4,10.6s-29.4-4.8-29.4-10.6"/>
	</g>
	<ellipse class="st4" cx="197.6" cy="41.4" rx="23.4" ry="7"/>
	<g>
		<g>
			<path class="st4" d="M216,45.7c3.1-1.2,4.9-2.7,4.9-4.3c0-3.9-10.5-7-23.4-7c-12.9,0-23.4,3.1-23.4,7c0,1.6,1.8,3.1,4.9,4.3
				c4.3-1.7,10.9-2.7,18.5-2.7C205.1,42.9,211.8,44,216,45.7z"/>
		</g>
	</g>
</g>
<g>
	<path class="st5" d="M243.9,33.5L262.5,20c1.3-1,3.2,0.2,2.9,1.8l-4.8,23.9"/>
	<ellipse transform="matrix(0.5709 -0.821 0.821 0.5709 75.4473 223.9517)" class="st5" cx="252" cy="39.8" rx="3.4" ry="10.4"/>
</g>
<circle class="st5" cx="160.9" cy="62.6" r="12.3"/>
<g>
	<path class="st5" d="M214.7,107.8l6,11c0.3,0.6,1,1,1.7,1l12.6,0.3c0.7,0,1.4-0.3,1.8-1l6.6-10.7c0.4-0.6,0.4-1.4,0.1-2l-6-11
		c-0.3-0.6-1-1-1.7-1l-12.6-0.3c-0.7,0-1.4,0.3-1.8,1l-6.6,10.7C214.4,106.4,214.3,107.2,214.7,107.8z"/>
	<path class="st5" d="M214.1,106.8l13.4-0.1c0.6,0,1.2-0.3,1.5-0.8l7.7-11.3"/>
	<line class="st5" x1="228.4" y1="106.3" x2="235.9" y2="120.2"/>
</g>
<path class="st0" d="M279.1,69.7c0.6-5.4,5.2-9.5,10.7-9.5c3.9,0,7.3,2,9.2,5.1c0.8-0.3,1.7-0.4,2.6-0.4c4.7,0,8.5,3.8,8.5,8.5
	c0,4.7-3.8,8.5-8.5,8.5h-21.1c-3.4,0-6.1-2.7-6.1-6.1C274.3,72.8,276.3,70.4,279.1,69.7z"/>
<polygon class="st0" points="358.9,66.2 355.8,69.6 358.8,72.5 362,69.5 "/>
</svg>
