<?xml version="1.0" encoding="utf-8"?>
<!-- Generator: Adobe Illustrator 22.0.1, SVG Export Plug-In . SVG Version: 6.00 Build 0)  -->
<svg version="1.1" id="Layer_1" xmlns="http://www.w3.org/2000/svg" xmlns:xlink="http://www.w3.org/1999/xlink" x="0px" y="0px"
	 viewBox="0 0 400 140" style="enable-background:new 0 0 400 140;" xml:space="preserve">
<style type="text/css">
	.st0{opacity:0.1;}
	.st1{fill:none;stroke:#013F4F;stroke-width:2;stroke-linecap:round;stroke-miterlimit:10;}
	.st2{opacity:0.1;fill:none;stroke:#013F4F;stroke-width:2;stroke-linecap:round;stroke-miterlimit:10;}
	.st3{opacity:0.1;fill:none;stroke:#013F4F;stroke-width:2;stroke-linejoin:round;stroke-miterlimit:10;}
	.st4{fill:none;stroke:#0083FD;stroke-width:2;stroke-miterlimit:10;}
	.st5{opacity:0.2;fill:none;stroke:#000000;stroke-width:2;stroke-linecap:round;stroke-miterlimit:10;stroke-dasharray:0,6;}
	.st6{opacity:0.2;fill:none;stroke:#013F4F;stroke-width:2;stroke-linecap:round;stroke-linejoin:round;stroke-miterlimit:10;}
	.st7{fill:#0083FD;stroke:#000000;stroke-width:2;stroke-miterlimit:10;}
	.st8{fill:none;stroke:#000000;stroke-width:2;stroke-linecap:round;stroke-linejoin:round;stroke-miterlimit:10;}
</style>
<g class="st0">
	<line class="st1" x1="331.8" y1="18.8" x2="331.8" y2="23.8"/>
	<line class="st1" x1="334.3" y1="21.3" x2="329.3" y2="21.3"/>
</g>
<g class="st0">
	<line class="st1" x1="106.3" y1="118.8" x2="106.3" y2="123.8"/>
	<line class="st1" x1="108.8" y1="121.3" x2="103.8" y2="121.3"/>
</g>
<polyline class="st2" points="253.1,120.4 255.3,116.5 259.8,118.3 262.3,113.4 "/>
<polyline class="st2" points="86.8,31.7 89,27.7 93.6,29.6 96.1,24.7 "/>
<polygon class="st3" points="52.3,98.4 49.1,101.8 52.2,104.7 55.3,101.7 "/>
<polygon class="st3" points="350.8,110.8 347.7,114.2 350.8,117.1 353.9,114.1 "/>
<g>
	<g>
		<path class="st4" d="M120.1,77l0.4,17.4c0,0.9,0.5,1.6,1.3,2l15.7,6.9c0.6,0.3,1.2,0.2,1.8,0l14.3-6.7c0.8-0.4,1.3-1.2,1.3-2
			l-0.5-19c0-0.9-0.6-1.7-1.4-2l-15.2-6c-0.6-0.2-1.2-0.2-1.8,0.1L121.3,75C120.6,75.4,120.1,76.2,120.1,77z"/>
		<path class="st4" d="M120.1,75.7l16.7,5.6c0.5,0.2,1.1,0.1,1.6-0.1l16.1-7"/>
		<line class="st4" x1="138.2" y1="103.7" x2="137.6" y2="81.5"/>
	</g>
	<circle class="st4" cx="198.6" cy="105.9" r="19.3"/>
	<path class="st4" d="M242.5,82.4l10.5-29.6c0.8-2.1,3.8-2.1,4.5,0l11.1,30.5"/>
	
		<ellipse transform="matrix(3.540853e-02 -0.9994 0.9994 3.540853e-02 163.2944 335.5537)" class="st4" cx="255.5" cy="83.2" rx="4.4" ry="13.2"/>
	<path class="st5" d="M245.4,58.7"/>
	<path class="st6" d="M251.2,64.1"/>
	<g class="st0">
		<line class="st1" x1="143.8" y1="34.8" x2="143.8" y2="39.8"/>
		<line class="st1" x1="146.3" y1="37.3" x2="141.3" y2="37.3"/>
	</g>
	<path class="st6" d="M198.6,90.2"/>
	<path class="st7" d="M198.4,18.7c-10.1,0.4-18.3,8.8-18.4,18.9c-0.1,5.8,2.4,11.1,6.5,14.7c0.2,0.2,0.3,0.4,0.3,0.7l-0.1,8.5
		c0,0.5,0.4,1,0.9,1l22.5,0.3c0.5,0,1-0.4,1-0.9l0.1-8.3c0-0.3,0.1-0.5,0.3-0.7c4.2-3.5,7-8.7,7-14.6
		C218.6,27.2,209.5,18.3,198.4,18.7z"/>
	<line class="st8" x1="189.7" y1="74.3" x2="208.1" y2="74.5"/>
	<line class="st8" x1="189.7" y1="67.9" x2="208.1" y2="68.1"/>
</g>
<path class="st2" d="M343.1,33.5c-8.1,0-14.9,5.8-16.5,13.4c-0.5-0.1-1.1-0.1-1.7-0.1c-5.6,0-10.2,4.6-10.2,10.2
	c0,5.5,4.3,9.9,9.7,10.2v0h18.6c9.3,0,16.8-7.5,16.8-16.8S352.4,33.5,343.1,33.5z"/>
<path class="st2" d="M84.7,58.2c-0.7-5.7-5.5-10.1-11.4-10.1c-4.1,0-7.7,2.2-9.7,5.4c-0.9-0.3-1.8-0.4-2.7-0.4c-4.9,0-8.9,4-8.9,8.9
	c0,4.9,4,8.9,8.9,8.9h22.4c3.6,0,6.5-2.9,6.5-6.5C89.8,61.5,87.6,58.9,84.7,58.2z"/>
<g class="st0">
	<line class="st1" x1="22.8" y1="18.8" x2="22.8" y2="23.8"/>
	<line class="st1" x1="25.3" y1="21.3" x2="20.3" y2="21.3"/>
</g>
</svg>
