<?xml version="1.0" encoding="utf-8"?>
<!-- Generator: Adobe Illustrator 22.0.1, SVG Export Plug-In . SVG Version: 6.00 Build 0)  -->
<svg version="1.1" id="Layer_1" xmlns="http://www.w3.org/2000/svg" xmlns:xlink="http://www.w3.org/1999/xlink" x="0px" y="0px"
	 viewBox="0 0 400 140" style="enable-background:new 0 0 400 140;" xml:space="preserve">
<style type="text/css">
	.st0{fill:#0083FD;}
	.st1{fill:#013F4F;}
	.st2{opacity:0.1;fill:none;stroke:#000000;stroke-width:2;stroke-miterlimit:10;}
	.st3{fill:none;stroke:#000000;stroke-width:2;stroke-miterlimit:10;}
	.st4{opacity:0.1;fill:none;stroke:#013F4F;stroke-width:2;stroke-linecap:round;stroke-miterlimit:10;stroke-dasharray:0,6;}
	.st5{fill:none;stroke:#000000;stroke-width:2;stroke-linecap:round;stroke-miterlimit:10;}
	.st6{opacity:0.1;}
	.st7{fill:none;stroke:#013F4F;stroke-width:2;stroke-linecap:round;stroke-miterlimit:10;}
	.st8{opacity:0.1;fill:none;stroke:#013F4F;stroke-width:2;stroke-linecap:round;stroke-miterlimit:10;}
	.st9{opacity:0.1;fill:none;stroke:#013F4F;stroke-width:2;stroke-linejoin:round;stroke-miterlimit:10;}
	.st10{fill:none;stroke:#0083FD;stroke-width:2;stroke-miterlimit:10;}
</style>
<rect x="162.3" y="10.9" class="st0" width="70" height="11"/>
<rect x="162.3" y="108.9" class="st0" width="70" height="16"/>
<g>
	<path d="M163.3,126.6c-0.6,0-1.2-0.3-1.7-0.7c-0.5-0.5-0.7-1.1-0.7-1.7l0.1-43.1l-0.1-18.3l0.2-50.5c0-0.6,0.3-1.2,0.7-1.7
		c0.5-0.5,1.1-0.7,1.7-0.7l68.6,0.1c0,0,0,0,0,0c0.6,0,1.2,0.3,1.7,0.7c0.5,0.5,0.7,1.1,0.7,1.7l-0.2,111.9c0,1.3-1.1,2.4-2.4,2.4
		L163.3,126.6C163.3,126.6,163.3,126.6,163.3,126.6z M232.1,12.4l-68.6-0.1l-0.2,50.5l0.1,18.3l-0.1,43.1l68.6,0.1L232.1,12.4z"/>
</g>
<g>
	<rect x="196.5" y="73" transform="matrix(1.685124e-03 -1 1 1.685124e-03 88.843 305.948)" width="2.4" height="71"/>
</g>
<g>
	<rect x="196.6" y="-12.7" transform="matrix(1.685124e-03 -1 1 1.685124e-03 174.6521 220.5686)" width="2.4" height="71"/>
</g>
<g>
	<path d="M197.8,121.7c-2.7,0-4.9-2.2-4.9-5c0-1.3,0.5-2.6,1.5-3.5c0.9-0.9,2.2-1.4,3.5-1.4c0,0,0,0,0,0c1.3,0,2.5,0.5,3.5,1.5
		c0.9,0.9,1.4,2.2,1.4,3.5l0,0C202.8,119.5,200.5,121.7,197.8,121.7C197.8,121.7,197.8,121.7,197.8,121.7z M197.8,114.3
		C197.8,114.3,197.8,114.3,197.8,114.3c-0.7,0-1.3,0.3-1.8,0.7c-0.5,0.5-0.7,1.1-0.7,1.8c0,1.4,1.1,2.5,2.5,2.6c0,0,0,0,0,0
		c1.4,0,2.5-1.1,2.6-2.5l0,0c0-0.7-0.3-1.3-0.7-1.8C199.1,114.5,198.5,114.3,197.8,114.3z"/>
</g>
<g>
	<path d="M195.9,18.3c-0.7,0-1.2-0.5-1.2-1.2c0-0.7,0.5-1.2,1.2-1.2l13.3,0c0,0,0,0,0,0c0.7,0,1.2,0.5,1.2,1.2
		c0,0.7-0.5,1.2-1.2,1.2L195.9,18.3C195.9,18.3,195.9,18.3,195.9,18.3z"/>
</g>
<g>
	<path d="M186,18.3c-0.7,0-1.2-0.5-1.2-1.2c0-0.7,0.5-1.2,1.2-1.2l6.3,0c0,0,0,0,0,0c0.7,0,1.2,0.5,1.2,1.2c0,0.7-0.5,1.2-1.2,1.2
		L186,18.3C186,18.3,186,18.3,186,18.3z"/>
</g>
<g>
	<path class="st1" d="M161.3,99.8"/>
</g>
<path class="st2" d="M102.9,92.1"/>
<g>
	<path class="st3" d="M316.6,102"/>
</g>
<g>
	<path class="st1" d="M233.7,117.3"/>
</g>
<g>
	<path class="st1" d="M204.5,79.8"/>
</g>
<g>
	<path class="st1" d="M162.1,43.1"/>
</g>
<path class="st4" d="M77.6,45.1"/>
<path class="st4" d="M80,52"/>
<circle class="st0" cx="234.3" cy="37.5" r="10.6"/>
<polyline class="st5" points="230.1,36.6 233.7,40.1 240.1,34.1 "/>
<g class="st6">
	<path class="st1" d="M70,111.3c-0.5,0-0.9-0.1-1.2-0.4c-0.3-0.3-0.5-0.7-0.6-1.2l-1.4-30.9l-0.7-13.1l-1.6-36.3
		c0-0.5,0.1-0.9,0.4-1.2c0.3-0.3,0.7-0.5,1.2-0.6l49.3-2.2c0,0,0,0,0,0c0.5,0,0.9,0.1,1.2,0.4c0.3,0.3,0.5,0.7,0.6,1.2l3.6,80.3
		c0,0.9-0.7,1.8-1.6,1.8L70,111.3C70,111.3,70,111.3,70,111.3z M115.5,27l-49.3,2.2l1.6,36.3l0.7,13.1l1.4,30.9l49.3-2.2L115.5,27z"
		/>
</g>
<g class="st6">
	
		<rect x="68.5" y="96.3" transform="matrix(0.999 -4.501431e-02 4.501431e-02 0.999 -4.2768 4.3307)" class="st1" width="51" height="1.7"/>
</g>
<g class="st6">
	
		<rect x="65.7" y="34.8" transform="matrix(0.999 -4.501431e-02 4.501431e-02 0.999 -1.5127 4.1437)" class="st1" width="51" height="1.7"/>
</g>
<g class="st6">
	<path class="st1" d="M94.6,106.6c-1.9,0.1-3.6-1.4-3.7-3.4c0-0.9,0.3-1.9,0.9-2.6c0.6-0.7,1.5-1.1,2.5-1.2c0,0,0,0,0,0
		c0.9,0,1.8,0.3,2.5,0.9c0.7,0.6,1.1,1.5,1.2,2.5l0,0C98.1,104.9,96.5,106.6,94.6,106.6C94.6,106.6,94.6,106.6,94.6,106.6z
		 M94.3,101.3C94.3,101.3,94.3,101.3,94.3,101.3c-0.5,0-0.9,0.2-1.3,0.6c-0.3,0.4-0.5,0.8-0.5,1.3c0,1,0.9,1.8,1.9,1.7c0,0,0,0,0,0
		c1,0,1.8-0.9,1.7-1.9l0,0c0-0.5-0.2-0.9-0.6-1.3C95.3,101.4,94.8,101.2,94.3,101.3z"/>
</g>
<g class="st6">
	<path class="st1" d="M89.7,32.5c-0.5,0-0.9-0.3-0.9-0.8c0-0.5,0.3-0.9,0.8-0.9l9.6-0.4c0,0,0,0,0,0c0.5,0,0.9,0.3,0.9,0.8
		c0,0.5-0.3,0.9-0.8,0.9L89.7,32.5C89.7,32.5,89.7,32.5,89.7,32.5z"/>
</g>
<g class="st6">
	<path class="st1" d="M72.4,47.4c-0.5,0-0.9-0.3-0.9-0.8c0-0.5,0.3-0.9,0.8-0.9l38.3-1.8c0,0,0,0,0,0c0.5,0,0.9,0.3,0.9,0.8
		c0,0.5-0.3,0.9-0.8,0.9L72.4,47.4C72.4,47.4,72.4,47.4,72.4,47.4z"/>
</g>
<g class="st6">
	<path class="st1" d="M82.7,32.8c-0.5,0-0.9-0.3-0.9-0.8c0-0.5,0.3-0.9,0.8-0.9l4.5-0.2c0,0,0,0,0,0c0.5,0,0.9,0.3,0.9,0.8
		c0,0.5-0.3,0.9-0.8,0.9L82.7,32.8C82.7,32.8,82.7,32.8,82.7,32.8z"/>
</g>
<g class="st6">
	<path class="st1" d="M72.8,54.6c-0.5,0-0.9-0.3-0.9-0.8c0-0.5,0.3-0.9,0.8-0.9l38.3-1.8c0,0,0,0,0,0c0.5,0,0.9,0.3,0.9,0.8
		c0,0.5-0.3,0.9-0.8,0.9L72.8,54.6C72.8,54.6,72.8,54.6,72.8,54.6z"/>
</g>
<g class="st6">
	<path class="st1" d="M73.1,61.8c-0.5,0-0.9-0.3-0.9-0.8c0-0.5,0.3-0.9,0.8-0.9l38.3-1.8c0,0,0,0,0,0c0.5,0,0.9,0.3,0.9,0.8
		c0,0.5-0.3,0.9-0.8,0.9L73.1,61.8C73.1,61.8,73.1,61.8,73.1,61.8z"/>
</g>
<g class="st6">
	<path class="st1" d="M73.4,68.9c-0.5,0-0.9-0.3-0.9-0.8c0-0.5,0.3-0.9,0.8-0.9l16.7-0.8c0,0,0,0,0,0c0.5,0,0.9,0.3,0.9,0.8
		c0,0.5-0.3,0.9-0.8,0.9L73.4,68.9C73.4,68.9,73.4,68.9,73.4,68.9z"/>
</g>
<path class="st2" d="M314.7,93"/>
<path class="st4" d="M294.4,43.7"/>
<path class="st4" d="M296.2,50.7"/>
<g class="st6">
	<path class="st1" d="M279.9,108.7c-0.5,0-0.9-0.2-1.2-0.6c-0.3-0.3-0.5-0.8-0.4-1.2l1.9-30.9l0.7-13.1l2.2-36.2
		c0-0.5,0.2-0.9,0.6-1.2c0.3-0.3,0.8-0.5,1.2-0.4l49.2,3c0,0,0,0,0,0c0.5,0,0.9,0.2,1.2,0.6c0.3,0.3,0.5,0.8,0.4,1.2L331,110
		c-0.1,0.9-0.9,1.7-1.8,1.6L279.9,108.7C279.9,108.7,279.9,108.7,279.9,108.7z M334.1,29.7l-49.2-3l-2.2,36.2L281.9,76l-1.9,30.9
		l49.2,3L334.1,29.7z"/>
</g>
<g class="st6">
	
		<rect x="304.5" y="71.6" transform="matrix(5.989529e-02 -0.9982 0.9982 5.989529e-02 190.1079 396.0663)" class="st1" width="1.7" height="51"/>
</g>
<g class="st6">
	
		<rect x="308.1" y="10.2" transform="matrix(5.989529e-02 -0.9982 0.9982 5.989529e-02 254.8817 342.0023)" class="st1" width="1.7" height="51"/>
</g>
<g class="st6">
	<path class="st1" d="M304.9,106.6c-1.9-0.1-3.4-1.8-3.3-3.8c0.1-0.9,0.5-1.8,1.2-2.4c0.7-0.6,1.6-0.9,2.6-0.9c0,0,0,0,0,0
		c0.9,0.1,1.8,0.5,2.4,1.2c0.6,0.7,0.9,1.6,0.9,2.6l0,0C308.5,105.2,306.8,106.7,304.9,106.6C304.9,106.6,304.9,106.6,304.9,106.6z
		 M305.2,101.3C305.2,101.3,305.2,101.3,305.2,101.3c-0.5,0-1,0.1-1.3,0.5c-0.4,0.3-0.6,0.8-0.6,1.3c-0.1,1,0.7,1.9,1.7,1.9
		c0,0,0,0,0,0c1,0.1,1.9-0.7,1.9-1.7l0,0c0-0.5-0.1-1-0.5-1.3C306.1,101.5,305.7,101.3,305.2,101.3z"/>
</g>
<g class="st6">
	<path class="st1" d="M307.8,32.4c-0.5,0-0.8-0.4-0.8-0.9c0-0.5,0.4-0.8,0.9-0.8l9.6,0.6c0,0,0,0,0,0c0.5,0,0.8,0.4,0.8,0.9
		c0,0.5-0.4,0.8-0.9,0.8L307.8,32.4C307.8,32.4,307.8,32.4,307.8,32.4z"/>
</g>
<g class="st6">
	<path class="st1" d="M289.1,45.4c-0.5,0-0.8-0.4-0.8-0.9c0-0.5,0.4-0.8,0.9-0.8l38.2,2.2c0,0,0,0,0,0c0.5,0,0.8,0.4,0.8,0.9
		c0,0.5-0.4,0.8-0.9,0.8L289.1,45.4C289.1,45.4,289.1,45.4,289.1,45.4z"/>
</g>
<g class="st6">
	<path class="st1" d="M300.8,31.9c-0.5,0-0.8-0.4-0.8-0.9c0-0.5,0.4-0.8,0.9-0.8l4.5,0.3c0,0,0,0,0,0c0.5,0,0.8,0.4,0.8,0.9
		c0,0.5-0.4,0.8-0.9,0.8L300.8,31.9C300.8,31.9,300.8,31.9,300.8,31.9z"/>
</g>
<g class="st6">
	<path class="st1" d="M288.6,52.6c-0.5,0-0.8-0.4-0.8-0.9c0-0.5,0.4-0.8,0.9-0.8l38.2,2.2c0,0,0,0,0,0c0.5,0,0.8,0.4,0.8,0.9
		c0,0.5-0.4,0.8-0.9,0.8L288.6,52.6C288.7,52.6,288.7,52.6,288.6,52.6z"/>
</g>
<g class="st6">
	<line class="st7" x1="377.2" y1="123.3" x2="377.2" y2="128.3"/>
	<line class="st7" x1="379.7" y1="125.8" x2="374.7" y2="125.8"/>
</g>
<g class="st6">
	<line class="st7" x1="133.2" y1="76.3" x2="133.2" y2="81.3"/>
	<line class="st7" x1="135.7" y1="78.8" x2="130.7" y2="78.8"/>
</g>
<g class="st6">
	<line class="st7" x1="309.2" y1="125.1" x2="309.2" y2="130.1"/>
	<line class="st7" x1="311.7" y1="127.6" x2="306.7" y2="127.6"/>
</g>
<g class="st6">
	<line class="st7" x1="248.2" y1="83.1" x2="248.2" y2="88.1"/>
	<line class="st7" x1="250.7" y1="85.6" x2="245.7" y2="85.6"/>
</g>
<polyline class="st8" points="364.1,29.5 366.2,25.6 370.8,27.4 373.3,22.5 "/>
<polyline class="st8" points="26.7,82 28.8,78.1 33.4,79.9 35.9,75 "/>
<polyline class="st8" points="146.9,34 144.8,30.1 140.2,31.9 137.7,27 "/>
<polygon class="st9" points="68.3,123.1 65.2,126.4 68.2,129.4 71.4,126.4 "/>
<polygon class="st9" points="268.3,20.1 265.2,23.4 268.2,26.4 271.4,23.4 "/>
<polygon class="st9" points="364.7,83.6 361.5,87 364.6,89.9 367.7,86.9 "/>
<g>
	<g>
		<path class="st0" d="M205.4,80.9"/>
	</g>
	<g>
		<path class="st0" d="M182.7,68.9c-0.5-0.5-0.4-1.2,0-1.7l0,0c0.5-0.5,1.2-0.4,1.7,0.1l0,0c0.5,0.5,0.4,1.2,0,1.7l0,0
			c-0.2,0.2-0.5,0.3-0.8,0.3l0,0C183.2,69.2,182.9,69.1,182.7,68.9z M187.9,64c-0.5-0.5-0.4-1.2,0.1-1.7l0,0c0.5-0.5,1.2-0.4,1.7,0
			l0,0c0.5,0.5,0.4,1.2-0.1,1.7l0,0c-0.2,0.2-0.5,0.3-0.8,0.3l0,0C188.5,64.3,188.2,64.2,187.9,64z M193.2,59
			c-0.5-0.5-0.4-1.2,0.1-1.7l0,0c0.5-0.5,1.2-0.4,1.7,0l0,0c0.5,0.5,0.4,1.2-0.1,1.7l0,0c-0.2,0.2-0.5,0.3-0.8,0.3l0,0
			C193.7,59.4,193.4,59.3,193.2,59z"/>
	</g>
	<g>
		<path class="st0" d="M213,69.1c-0.5-0.5-0.5-1.2,0-1.7l0,0c0.5-0.5,1.2-0.5,1.7,0l0,0c0.5,0.5,0.5,1.2,0,1.7l0,0
			c-0.2,0.2-0.6,0.4-0.9,0.4l0,0C213.5,69.4,213.2,69.3,213,69.1z M207.8,64.1c-0.5-0.5-0.5-1.2,0-1.7l0,0c0.5-0.5,1.2-0.5,1.7,0
			l0,0c0.5,0.5,0.5,1.2,0,1.7l0,0c-0.2,0.2-0.6,0.4-0.9,0.4l0,0C208.3,64.5,208,64.4,207.8,64.1z M202.6,59.1
			c-0.5-0.5-0.5-1.2,0-1.7l0,0c0.5-0.5,1.2-0.5,1.7,0l0,0c0.5,0.5,0.5,1.2,0,1.7l0,0c-0.2,0.2-0.6,0.4-0.9,0.4l0,0
			C203.2,59.5,202.9,59.4,202.6,59.1z"/>
	</g>
	<g>
		<path class="st0" d="M209.2,78.3c-0.7,0-1.2-0.5-1.2-1.2l0,0c0-0.7,0.5-1.2,1.2-1.2l0,0c0.7,0,1.2,0.5,1.2,1.2l0,0
			C210.4,77.8,209.9,78.3,209.2,78.3L209.2,78.3L209.2,78.3z M200.9,77c0-0.7,0.5-1.2,1.2-1.2l0,0c0.7,0,1.2,0.5,1.2,1.2l0,0
			c0,0.7-0.5,1.2-1.2,1.2l0,0C201.4,78.2,200.9,77.7,200.9,77z M194.9,78.2c-0.7,0-1.2-0.5-1.2-1.2l0,0c0-0.7,0.5-1.2,1.2-1.2l0,0
			c0.7,0,1.2,0.5,1.2,1.2l0,0C196.1,77.6,195.5,78.2,194.9,78.2L194.9,78.2L194.9,78.2z M187.7,78.1c-0.7,0-1.2-0.5-1.2-1.2l0,0
			c0-0.7,0.5-1.2,1.2-1.2l0,0c0.7,0,1.2,0.5,1.2,1.2l0,0C188.9,77.6,188.3,78.1,187.7,78.1L187.7,78.1L187.7,78.1z"/>
	</g>
	<circle class="st10" cx="218.3" cy="76" r="5.1"/>
	<g>
		<path class="st10" d="M172,72.9l-0.1,3.7c0,0.7,0.3,1.4,1,1.8l3.1,1.9c0.6,0.4,1.4,0.4,2,0.1l3.2-1.8c0.6-0.3,1-1,1-1.7l0.1-3.7
			c0-0.7-0.3-1.4-1-1.8l-3.1-1.9c-0.6-0.4-1.4-0.4-2-0.1l-3.2,1.8C172.4,71.5,172,72.2,172,72.9z"/>
		<path class="st10" d="M172,71.8l4.7,2.6c0.2,0.1,0.5,0.1,0.7,0l4.9-2.4"/>
		<line class="st10" x1="177.1" y1="74.5" x2="176.9" y2="80.8"/>
	</g>
	<g>
		<path class="st10" d="M194.1,52.6l3.3-9.4c0.2-0.7,1.2-0.7,1.5,0l4.2,9.7"/>
		
			<ellipse transform="matrix(2.832853e-03 -1 1 2.832853e-03 145.0688 251.2776)" class="st10" cx="198.5" cy="52.9" rx="1.5" ry="4.5"/>
	</g>
</g>
<polygon class="st9" points="21.3,34.1 18.2,37.4 21.2,40.4 24.4,37.4 "/>
</svg>
