<?xml version="1.0" encoding="utf-8"?>
<!-- Generator: Adobe Illustrator 22.0.1, SVG Export Plug-In . SVG Version: 6.00 Build 0)  -->
<svg version="1.1" id="Layer_1" xmlns="http://www.w3.org/2000/svg" xmlns:xlink="http://www.w3.org/1999/xlink" x="0px" y="0px"
	 viewBox="0 0 400 140" style="enable-background:new 0 0 400 140;" xml:space="preserve">
<style type="text/css">
	.st0{fill:none;stroke:#000000;stroke-width:2;stroke-miterlimit:10;}
	.st1{opacity:0.2;fill:none;stroke:#013F4F;stroke-width:2;stroke-linecap:round;stroke-linejoin:round;stroke-miterlimit:10;}
	.st2{fill:none;stroke:#0083FD;stroke-width:2;stroke-miterlimit:10;}
	.st3{opacity:0.1;}
	.st4{fill:none;stroke:#013F4F;stroke-width:2;stroke-linecap:round;stroke-miterlimit:10;}
	.st5{opacity:0.1;fill:none;stroke:#013F4F;stroke-width:2;stroke-linecap:round;stroke-miterlimit:10;}
	.st6{opacity:0.1;fill:none;stroke:#013F4F;stroke-width:2;stroke-linejoin:round;stroke-miterlimit:10;}
	.st7{fill:#0083FD;stroke:#000000;stroke-width:2;stroke-miterlimit:10;}
	.st8{fill:#FFFFFF;stroke:#000000;stroke-width:2;stroke-miterlimit:10;}
	.st9{fill:#FFFFFF;stroke:#000000;stroke-width:2;stroke-linecap:round;stroke-linejoin:round;stroke-miterlimit:10;}
	.st10{fill:none;stroke:#000000;stroke-width:2;stroke-linecap:round;stroke-linejoin:round;stroke-miterlimit:10;}
	.st11{fill:#0083FD;}
	.st12{fill:none;stroke:#0083FD;stroke-width:2;stroke-linecap:round;stroke-linejoin:round;stroke-miterlimit:10;}
	.st13{fill:none;stroke:#0083FD;stroke-linecap:round;stroke-linejoin:round;stroke-miterlimit:10;}
	.st14{fill:#0083FD;stroke:#000000;stroke-miterlimit:10;}
	.st15{stroke:#000000;stroke-miterlimit:10;}
</style>
<g>
	<g>
		<g>
			<path class="st0" d="M92.7,114.1"/>
		</g>
	</g>
</g>
<g>
	<g>
		<g>
			<path class="st0" d="M311.7,114.1"/>
		</g>
	</g>
</g>
<path class="st1" d="M77.1,88.6c-6.6,0-12.1,4.7-13.4,10.9c-0.4-0.1-0.9-0.1-1.4-0.1c-4.6,0-8.3,3.7-8.3,8.3c0,4.5,3.5,8.1,7.9,8.3
	v0h15.1c7.6,0,13.7-6.1,13.7-13.7C90.8,94.8,84.7,88.6,77.1,88.6z"/>
<path class="st1" d="M376.3,51.7c-0.8-6.8-6.6-12.1-13.6-12.1c-4.9,0-9.2,2.6-11.6,6.5c-1-0.3-2.1-0.5-3.3-0.5
	c-5.9,0-10.7,4.8-10.7,10.7c0,5.9,4.8,10.7,10.7,10.7h26.8c4.3,0,7.7-3.5,7.7-7.7C382.3,55.6,379.7,52.5,376.3,51.7z"/>
<path class="st1" d="M29.3,35.9c0.6-5.4,5.2-9.5,10.7-9.5c3.9,0,7.3,2,9.2,5.1c0.8-0.3,1.7-0.4,2.6-0.4c4.7,0,8.5,3.8,8.5,8.5
	c0,4.7-3.8,8.5-8.5,8.5H30.6c-3.4,0-6.1-2.7-6.1-6.1C24.5,39,26.5,36.6,29.3,35.9z"/>
<path class="st0" d="M275.4,113.1"/>
<path class="st0" d="M310.7,113.1"/>
<path class="st0" d="M291.9,113.1"/>
<circle class="st2" cx="277.9" cy="122.7" r="4.6"/>
<g class="st3">
	<line class="st4" x1="110.9" y1="121.5" x2="110.9" y2="126.5"/>
	<line class="st4" x1="113.4" y1="124" x2="108.4" y2="124"/>
</g>
<g class="st3">
	<line class="st4" x1="115.7" y1="20.9" x2="115.7" y2="25.9"/>
	<line class="st4" x1="118.2" y1="23.4" x2="113.2" y2="23.4"/>
</g>
<polyline class="st5" points="85.7,61.2 87.8,57.3 92.4,59.2 94.9,54.3 "/>
<polyline class="st5" points="358.6,97.1 360.7,93.2 365.3,95 367.8,90.1 "/>
<polygon class="st6" points="40.9,80.8 37.7,84.2 40.8,87.1 44,84.1 "/>
<polygon class="st6" points="337.9,11.8 334.7,15.2 337.8,18.1 341,15.1 "/>
<polygon class="st6" points="325,110.2 321.8,113.6 324.9,116.5 328.1,113.5 "/>
<g>
	<g>
		<path class="st7" d="M146.4,117.1v9.3c0,0.4,0.4,0.8,0.8,0.8h108.7c0.4,0,0.8-0.4,0.8-0.8v-9.3"/>
		<path class="st7" d="M147.5,117.8c-0.6,0-1-0.4-1-1v-70c0-0.6,0.4-1,1-1h108.1c0.6,0,1,0.4,1,1v70c0,0.6-0.4,1-1,1"/>
		<path class="st8" d="M247.7,109.2h-92.3c-0.6,0-1-0.4-1-1V55.5c0-0.6,0.4-1,1-1h92.3c0.6,0,1,0.4,1,1v52.7
			C248.7,108.7,248.3,109.2,247.7,109.2z"/>
		<path class="st8" d="M184.7,118.2l4.1,3.4c0.1,0.1,0.3,0.2,0.5,0.2h21.8c0.1,0,0.3,0,0.4-0.1l4.6-3.5"/>
	</g>
	<path class="st0" d="M146.4,109.1"/>
	<path class="st0" d="M256.5,109.1"/>
	<g>
		<path class="st9" d="M291.5,105.2l-21.9-11.5c-0.5-0.3-0.7-0.9-0.4-1.4l15.5-29.5c0.3-0.5,0.9-0.7,1.4-0.4l21.9,11.5
			c0.5,0.3,0.7,0.9,0.4,1.4l-15.5,29.5C292.6,105.2,292,105.4,291.5,105.2z"/>
		<line class="st10" x1="302.4" y1="78.1" x2="293.4" y2="73.4"/>
		<line class="st10" x1="299.9" y1="83" x2="290.8" y2="78.2"/>
		<line class="st10" x1="297.3" y1="87.8" x2="279.9" y2="78.7"/>
		<line class="st10" x1="294.8" y1="92.7" x2="277.4" y2="83.6"/>
		<path class="st11" d="M283,75l4.5,2.4c0.5,0.3,1.1,0.1,1.4-0.4l2.4-4.5c0.3-0.5,0.1-1.1-0.4-1.4l-4.5-2.4
			c-0.5-0.3-1.1-0.1-1.4,0.4l-2.4,4.5C282.3,74.1,282.5,74.8,283,75z"/>
	</g>
	<g>
		<path d="M190.7,84.3c-0.3-0.5-0.1-1.1,0.4-1.4l0,0c0.5-0.3,1.1-0.1,1.4,0.4l0,0c0.3,0.5,0.1,1.1-0.4,1.4l0,0
			c-0.2,0.1-0.3,0.1-0.5,0.1l0,0C191.3,84.8,190.9,84.6,190.7,84.3z M211.4,84.4c-0.5-0.3-0.6-0.9-0.3-1.4l0,0
			c0.3-0.5,0.9-0.6,1.4-0.3l0,0c0.5,0.3,0.6,0.9,0.3,1.4l0,0c-0.2,0.3-0.5,0.4-0.8,0.4l0,0C211.8,84.6,211.6,84.5,211.4,84.4z
			 M226.9,83.5c-0.3-0.5-0.1-1.1,0.4-1.4l0,0c0.5-0.3,1.1-0.1,1.4,0.4l0,0c0.3,0.5,0.1,1.1-0.4,1.4l0,0c-0.2,0.1-0.3,0.1-0.5,0.1
			l0,0C227.4,84,227.1,83.8,226.9,83.5z M195.9,81.3c-0.3-0.5-0.1-1.1,0.4-1.4l0,0c0.5-0.3,1.1-0.1,1.4,0.4l0,0
			c0.3,0.5,0.1,1.1-0.4,1.4l0,0c-0.2,0.1-0.3,0.1-0.5,0.1l0,0C196.5,81.8,196.1,81.6,195.9,81.3z M206.5,81
			c-0.4-0.3-0.6-0.9-0.3-1.4l0,0c0.3-0.5,0.9-0.6,1.4-0.3l0,0c0.5,0.3,0.6,0.9,0.3,1.4l0,0c-0.2,0.3-0.5,0.4-0.8,0.4l0,0
			C206.8,81.2,206.6,81.1,206.5,81z M232.1,80.4c-0.3-0.5-0.2-1.1,0.2-1.4l0,0c0.5-0.3,1.1-0.2,1.4,0.2l0,0c0.3,0.5,0.2,1.1-0.2,1.4
			l0,0c-0.2,0.1-0.4,0.2-0.6,0.2l0,0C232.6,80.8,232.3,80.7,232.1,80.4z M236.8,76.8c-0.4-0.4-0.3-1,0.1-1.4l0,0
			c0.4-0.4,1-0.4,1.4,0.1l0,0c0.4,0.4,0.3,1-0.1,1.4l0,0c-0.2,0.2-0.4,0.3-0.7,0.3l0,0C237.3,77.1,237,77,236.8,76.8z M241,72.5
			c-0.4-0.3-0.5-1-0.2-1.4l0,0c0.3-0.4,1-0.5,1.4-0.2l0,0c0.4,0.3,0.5,1,0.2,1.4l0,0c-0.2,0.3-0.5,0.4-0.8,0.4l0,0
			C241.4,72.7,241.2,72.6,241,72.5z M244.2,67.4c-0.5-0.2-0.8-0.8-0.5-1.3l0,0c0.2-0.5,0.8-0.8,1.3-0.5l0,0c0.5,0.2,0.8,0.8,0.5,1.3
			l0,0c-0.2,0.4-0.5,0.6-0.9,0.6l0,0C244.5,67.5,244.4,67.5,244.2,67.4z M245.9,61.7c-0.6,0-1-0.5-0.9-1.1l0,0c0-0.5,0.5-1,1.1-0.9
			l0,0c0.5,0,1,0.5,0.9,1.1l0,0C247,61.3,246.5,61.7,245.9,61.7L245.9,61.7C246,61.7,246,61.7,245.9,61.7z M246.2,55.7
			c-0.5,0-1-0.5-0.9-1.1l0,0l0,0l0,0c0.1-0.6,0.6-1,1.1-0.9l0,0c0.5,0.1,1,0.5,0.9,1.1l0,0C247.2,55.3,246.8,55.7,246.2,55.7
			L246.2,55.7C246.3,55.7,246.2,55.7,246.2,55.7z M247.1,49.8c-0.5-0.2-0.8-0.7-0.7-1.2l0,0c0,0,0,0,0,0l0,0
			c0.1-0.5,0.7-0.9,1.2-0.7l0,0c0.5,0.1,0.9,0.7,0.7,1.2h0c-0.1,0.5-0.5,0.8-1,0.8l0,0C247.2,49.8,247.2,49.8,247.1,49.8z
			 M248.9,44.1c-0.5-0.2-0.7-0.8-0.5-1.3l0,0l0,0l0,0c0.2-0.5,0.8-0.7,1.3-0.5l0,0c0.5,0.2,0.7,0.8,0.5,1.3l0,0
			c-0.2,0.4-0.5,0.6-0.9,0.6l0,0C249.2,44.2,249.1,44.2,248.9,44.1z M251.9,38.9c-0.4-0.3-0.5-1-0.1-1.4l0,0c0.3-0.4,1-0.5,1.4-0.2
			l0,0c0.4,0.3,0.5,1,0.2,1.4l0,0c-0.2,0.2-0.5,0.4-0.8,0.4l0,0C252.3,39.1,252.1,39,251.9,38.9z M256.1,34.6
			c-0.3-0.5-0.2-1.1,0.3-1.4l0,0c0.5-0.3,1.1-0.2,1.4,0.3l0,0c0.3,0.5,0.2,1.1-0.3,1.4l0,0c-0.2,0.1-0.4,0.2-0.5,0.2l0,0
			C256.6,35.1,256.3,34.9,256.1,34.6z M261.5,32c-0.1-0.5,0.3-1.1,0.8-1.2l0,0c0.5-0.1,1.1,0.3,1.2,0.8l0,0c0.1,0.5-0.3,1.1-0.8,1.2
			v0c-0.1,0-0.1,0-0.2,0l0,0C262,32.8,261.6,32.5,261.5,32z"/>
	</g>
	<circle class="st2" cx="220" cy="87.5" r="4.4"/>
	<g>
		<path class="st2" d="M152.7,15.4l-3.5,8.2c-0.3,0.7-0.2,1.4,0.2,2l5.4,7.1c0.4,0.6,1.1,0.9,1.8,0.8l8.9-1.1
			c0.7-0.1,1.3-0.5,1.6-1.2l3.5-8.2c0.3-0.7,0.2-1.4-0.2-2l-5.4-7.1c-0.4-0.6-1.1-0.9-1.8-0.8l-8.9,1.1
			C153.6,14.2,152.9,14.7,152.7,15.4z"/>
		<path class="st2" d="M153.1,14.3l6.4,7.9c0.3,0.4,0.7,0.6,1.2,0.5l10.3-0.8"/>
		<line class="st2" x1="160.1" y1="22.5" x2="155.5" y2="33.5"/>
	</g>
	<g>
		<path class="st12" d="M176.5,84l0.1,4.1c0,0.7,0.4,1.4,1.1,1.7l3.6,2c0.6,0.3,1.4,0.3,2-0.1l3.5-2.2c0.6-0.4,1-1,0.9-1.8l-0.1-4.1
			c0-0.7-0.4-1.4-1.1-1.7l-3.6-2c-0.6-0.3-1.4-0.3-2,0.1l-3.5,2.2C176.8,82.6,176.5,83.3,176.5,84z"/>
		<path class="st12" d="M176.5,82.8l5.2,2.6c0.2,0.1,0.5,0.1,0.8,0l5.2-2.9"/>
		<line class="st12" x1="182.1" y1="85.4" x2="182.3" y2="92.2"/>
	</g>
	<path class="st12" d="M198.6,76.2l2.9-9.1c0.2-0.6,1.1-0.7,1.4,0l3.3,9.3"/>
	<path class="st13" d="M202.2,75.6L202.2,75.6c0.1,0,0.2,0,0.3,0c2.3,0.1,3.6,0.7,3.6,1c0,0.2-1.2,0.8-3.4,0.8c-0.1,0-0.2,0-0.3,0
		c-2.3-0.1-3.6-0.7-3.6-1C198.8,76.1,199.9,75.6,202.2,75.6 M202.2,75.1c-2.2,0-3.9,0.6-3.9,1.3c0,0.8,1.8,1.4,4.1,1.5
		c0.1,0,0.2,0,0.3,0c2.2,0,3.9-0.6,3.9-1.3c0-0.8-1.8-1.4-4.1-1.5C202.3,75.1,202.2,75.1,202.2,75.1L202.2,75.1z"/>
	<g>
		<path class="st9" d="M150.8,81.7l-21.7,10.1c-0.5,0.2-1.1,0-1.3-0.5l-11.1-23.8c-0.2-0.5,0-1.1,0.5-1.3l21.7-10.1
			c0.5-0.2,1.1,0,1.3,0.5l11.1,23.8C151.5,80.9,151.3,81.5,150.8,81.7z"/>
		<polygon class="st14" points="121.7,78.2 134.9,80.5 138.8,64.8 145.2,67.3 151.7,81.3 128.2,92.2 		"/>
		<circle class="st11" cx="125.9" cy="69.5" r="3.5"/>
	</g>
	<g>
		<path class="st0" d="M289.2,13.4l-13.1,21.5c-0.3,0.5-1,0.5-1.3,0.1l-6.8-7.8c-0.1-0.1-0.2-0.2-0.3-0.2l-7.5-3.6
			c-0.7-0.3-0.6-1.3,0.1-1.5l28-9.7C288.9,11.9,289.6,12.7,289.2,13.4z"/>
		<line class="st0" x1="267.8" y1="27.1" x2="288" y2="12.6"/>
		<path class="st15" d="M267.8,27.1l0.4,6.5c0,0.7,0.8,1,1.4,0.6l2.6-2.2"/>
	</g>
	<line class="st7" x1="255.7" y1="117.8" x2="147.5" y2="117.8"/>
</g>
<g class="st3">
	<line class="st4" x1="310.9" y1="51.5" x2="310.9" y2="56.5"/>
	<line class="st4" x1="313.4" y1="54" x2="308.4" y2="54"/>
</g>
</svg>
