<?xml version="1.0" encoding="utf-8"?>
<!-- Generator: Adobe Illustrator 22.0.1, SVG Export Plug-In . SVG Version: 6.00 Build 0)  -->
<svg version="1.1" id="Layer_1" xmlns="http://www.w3.org/2000/svg" xmlns:xlink="http://www.w3.org/1999/xlink" x="0px" y="0px"
	 viewBox="0 0 400 140" style="enable-background:new 0 0 400 140;" xml:space="preserve">
<style type="text/css">
	.st0{opacity:0.1;fill:none;stroke:#013F4F;stroke-width:2;stroke-linecap:round;stroke-linejoin:round;stroke-miterlimit:10;}
	.st1{opacity:0.1;}
	.st2{fill:none;stroke:#013F4F;stroke-width:2;stroke-linecap:round;stroke-linejoin:round;stroke-miterlimit:10;}
	.st3{fill:none;stroke:#000000;stroke-width:2;stroke-linecap:round;stroke-linejoin:round;stroke-miterlimit:10;}
	.st4{fill:#0083FD;stroke:#000000;stroke-width:2;stroke-miterlimit:10;}
</style>
<path class="st0" d="M339.3,86.3c-6.6,0-12.1,4.7-13.4,10.9c-0.4-0.1-0.9-0.1-1.4-0.1c-4.6,0-8.3,3.7-8.3,8.3c0,4.5,3.5,8.1,7.9,8.3
	v0h15.1c7.6,0,13.7-6.1,13.7-13.7C353,92.5,346.9,86.3,339.3,86.3z"/>
<path class="st0" d="M66.4,104.6c-0.6-5.4-5.2-9.5-10.7-9.5c-3.9,0-7.3,2-9.2,5.1c-0.8-0.3-1.7-0.4-2.6-0.4c-4.7,0-8.5,3.8-8.5,8.5
	c0,4.7,3.8,8.5,8.5,8.5h21.1c3.4,0,6.1-2.7,6.1-6.1C71.2,107.7,69.1,105.2,66.4,104.6z"/>
<g class="st1">
	<line class="st2" x1="326.4" y1="44.1" x2="326.4" y2="49.1"/>
	<line class="st2" x1="328.9" y1="46.6" x2="323.9" y2="46.6"/>
</g>
<g class="st1">
	<line class="st2" x1="29.6" y1="44.4" x2="29.6" y2="49.4"/>
	<line class="st2" x1="32.1" y1="46.9" x2="27.1" y2="46.9"/>
</g>
<polyline class="st0" points="117.2,22.3 121,24.7 118.9,29.1 123.7,31.9 "/>
<polyline class="st0" points="272.7,73.5 276.8,75.3 275.5,80 280.6,82 "/>
<polygon class="st0" points="89.5,63.9 86.3,67.2 89.4,70.2 92.6,67.2 "/>
<polygon class="st0" points="371.5,27.9 368.3,31.2 371.4,34.2 374.6,31.2 "/>
<g>
	<g>
		<line class="st3" x1="169.5" y1="63.5" x2="187" y2="80.9"/>
		<line class="st3" x1="187" y1="63.5" x2="169.5" y2="80.9"/>
	</g>
	<g>
		<line class="st3" x1="206.5" y1="63.5" x2="223.9" y2="80.9"/>
		<line class="st3" x1="223.9" y1="63.5" x2="206.5" y2="80.9"/>
	</g>
</g>
<g>
	<path class="st4" d="M184.6,43.8l12.6-30.8c0.9-2.3,4.1-2.2,4.9,0.1l12.3,33.1"/>
	
		<ellipse transform="matrix(5.341908e-02 -0.9986 0.9986 5.341908e-02 143.3155 242.1005)" class="st4" cx="199.4" cy="45.5" rx="5" ry="15.1"/>
</g>
<g>
	<path class="st3" d="M146.6,105.5c0,0-17.3-21.4-6.3-46.5c11-25.1,36.5-26,36.5-26"/>
	<path d="M177,30.3l3.1,2.1c0.2,0.1,0.2,0.3,0,0.5l-2.7,2.6c-0.2,0.2-0.5,0.1-0.5-0.2l-0.4-4.7C176.5,30.3,176.8,30.1,177,30.3z"/>
</g>
<path class="st0" d="M252.2,30.5c0.6-5.4,5.2-9.5,10.7-9.5c3.9,0,7.3,2,9.2,5.1c0.8-0.3,1.7-0.4,2.6-0.4c4.7,0,8.5,3.8,8.5,8.5
	c0,4.7-3.8,8.5-8.5,8.5h-21.1c-3.4,0-6.1-2.7-6.1-6.1C247.5,33.5,249.5,31.1,252.2,30.5z"/>
<g>
	<g>
		<path class="st4" d="M154.6,103.7l-0.1,15.1c0,0.7,0.4,1.4,1,1.7l13,7.7c0.6,0.4,1.4,0.4,2,0l13.2-7.5c0.6-0.4,1-1,1-1.7l0.1-15.1
			c0-0.7-0.4-1.4-1-1.7l-13-7.7c-0.6-0.4-1.4-0.4-2,0l-13.2,7.5C155,102.3,154.6,103,154.6,103.7z"/>
		<path class="st4" d="M154.6,102.5l13.9,7.5c0.6,0.3,1.4,0.3,2,0l14.3-7.3"/>
		<line class="st4" x1="169.5" y1="110.1" x2="169.4" y2="128.6"/>
	</g>
	<circle class="st4" cx="224" cy="111.4" r="15"/>
</g>
</svg>
