<?xml version="1.0" encoding="utf-8"?>
<!-- Generator: Adobe Illustrator 22.0.1, SVG Export Plug-In . SVG Version: 6.00 Build 0)  -->
<svg version="1.1" id="Layer_1" xmlns="http://www.w3.org/2000/svg" xmlns:xlink="http://www.w3.org/1999/xlink" x="0px" y="0px"
	 viewBox="0 0 400 140" style="enable-background:new 0 0 400 140;" xml:space="preserve">
<style type="text/css">
	.st0{opacity:0.1;fill:none;stroke:#013F4F;stroke-width:2;stroke-linecap:round;stroke-linejoin:round;stroke-miterlimit:10;}
	.st1{opacity:0.1;}
	.st2{fill:none;stroke:#013F4F;stroke-width:2;stroke-linecap:round;stroke-linejoin:round;stroke-miterlimit:10;}
	.st3{fill:none;stroke:#000000;stroke-width:2;stroke-linecap:round;stroke-linejoin:round;stroke-miterlimit:10;}
	.st4{fill:#0083FD;stroke:#000000;stroke-width:2;stroke-linecap:round;stroke-linejoin:round;stroke-miterlimit:10;}
	.st5{fill:#FFFFFF;stroke:#0083FD;stroke-width:2;stroke-miterlimit:10;}
	.st6{fill:#F1F2F2;stroke:#0083FD;stroke-width:2;stroke-miterlimit:10;}
</style>
<path class="st0" d="M121,100c-0.6-5.4-5.2-9.5-10.7-9.5c-3.9,0-7.3,2-9.2,5.1c-0.8-0.3-1.7-0.4-2.6-0.4c-4.7,0-8.5,3.8-8.5,8.5
	c0,4.7,3.8,8.5,8.5,8.5h21.1c3.4,0,6.1-2.7,6.1-6.1C125.8,103,123.7,100.6,121,100z"/>
<g class="st1">
	<line class="st2" x1="314.7" y1="20.7" x2="314.7" y2="25.7"/>
	<line class="st2" x1="317.2" y1="23.2" x2="312.2" y2="23.2"/>
</g>
<polyline class="st0" points="287.9,89.5 287.2,93.9 292,95.3 290.9,100.7 "/>
<polyline class="st0" points="123.2,19.7 119.3,21.7 120.9,26.4 115.9,28.7 "/>
<polyline class="st0" points="41,111.8 45.1,113.6 43.8,118.3 48.9,120.3 "/>
<polygon class="st0" points="370.9,111.9 367.7,115.3 370.8,118.2 373.9,115.2 "/>
<polygon class="st0" points="70.2,67.7 67,71.1 70.1,74 73.3,71 "/>
<path class="st0" d="M33.8,35c0.6-5.4,5.2-9.5,10.7-9.5c3.9,0,7.3,2,9.2,5.1c0.8-0.3,1.7-0.4,2.6-0.4c4.7,0,8.5,3.8,8.5,8.5
	c0,4.7-3.8,8.5-8.5,8.5H35.2c-3.4,0-6.1-2.7-6.1-6.1C29.1,38,31.1,35.6,33.8,35z"/>
<path class="st0" d="M340,49c-6.6,0-12.1,4.7-13.4,10.9c-0.4-0.1-0.9-0.1-1.4-0.1c-4.6,0-8.3,3.7-8.3,8.3c0,4.5,3.5,8.1,7.9,8.3v0
	H340c7.6,0,13.7-6.1,13.7-13.7S347.6,49,340,49z"/>
<g>
	<rect x="141" y="28.1" class="st3" width="115.2" height="73.5"/>
	<polygon class="st4" points="215.5,65.1 200.5,72.8 185.4,80.5 185.4,65.1 185.4,49.7 200.5,57.4 	"/>
</g>
<g>
	<path class="st5" d="M131.9,73.2l-3-27.8c-0.3-2,2.2-3.3,3.7-1.9L155,63"/>
	<ellipse transform="matrix(0.9033 -0.4289 0.4289 0.9033 -15.4786 68.171)" class="st5" cx="143.5" cy="68.4" rx="12.7" ry="4.2"/>
</g>
<g>
	<path class="st5" d="M250.9,38l-2.7,12.2c-0.2,0.7,0.1,1.4,0.6,1.9l9.2,8.4c0.5,0.5,1.3,0.6,2,0.4l11.9-3.8
		c0.7-0.2,1.2-0.8,1.3-1.5l2.7-12.2c0.2-0.7-0.1-1.4-0.6-1.9l-9.2-8.4c-0.5-0.5-1.3-0.6-2-0.4l-11.9,3.8
		C251.6,36.8,251,37.3,250.9,38z"/>
	<path class="st6" d="M251.1,36.9l10.2,8.6c0.5,0.4,1.1,0.5,1.7,0.4l13.1-3.5"/>
	<line class="st6" x1="262.2" y1="45.8" x2="258.8" y2="61.1"/>
</g>
<circle class="st5" cx="235.2" cy="106" r="13"/>
</svg>
