<?xml version="1.0" encoding="utf-8"?>
<!-- Generator: Adobe Illustrator 22.0.1, SVG Export Plug-In . SVG Version: 6.00 Build 0)  -->
<svg version="1.1" id="Layer_1" xmlns="http://www.w3.org/2000/svg" xmlns:xlink="http://www.w3.org/1999/xlink" x="0px" y="0px"
	 viewBox="0 0 400 140" style="enable-background:new 0 0 400 140;" xml:space="preserve">
<style type="text/css">
	.st0{opacity:0.1;fill:none;stroke:#013F4F;stroke-width:2;stroke-linecap:round;stroke-linejoin:round;stroke-miterlimit:10;}
	.st1{opacity:0.1;}
	.st2{fill:none;stroke:#013F4F;stroke-width:2;stroke-linecap:round;stroke-linejoin:round;stroke-miterlimit:10;}
	.st3{fill:#0083FD;stroke:#000000;stroke-width:2;stroke-miterlimit:10;}
	.st4{fill:#FFFFFF;stroke:#000000;stroke-width:2;stroke-linecap:round;stroke-linejoin:round;stroke-miterlimit:10;}
	.st5{fill:none;stroke:#0083FD;stroke-width:2;stroke-miterlimit:10;}
	.st6{fill:#FFFFFF;stroke:#000000;stroke-width:2;stroke-miterlimit:10;}
</style>
<path class="st0" d="M64.9,34.4c-0.6-5.4-5.2-9.5-10.7-9.5c-3.9,0-7.3,2-9.2,5.1c-0.8-0.3-1.7-0.4-2.6-0.4c-4.7,0-8.5,3.8-8.5,8.5
	c0,4.7,3.8,8.5,8.5,8.5h21.1c3.4,0,6.1-2.7,6.1-6.1C69.6,37.4,67.6,35,64.9,34.4z"/>
<g class="st1">
	<line class="st2" x1="314.2" y1="70.8" x2="314.2" y2="75.8"/>
	<line class="st2" x1="316.7" y1="73.3" x2="311.7" y2="73.3"/>
</g>
<g class="st1">
	<line class="st2" x1="54" y1="109.4" x2="54" y2="114.4"/>
	<line class="st2" x1="56.5" y1="111.9" x2="51.5" y2="111.9"/>
</g>
<polyline class="st0" points="163.6,27.2 167.7,28.9 166.4,33.7 171.5,35.6 "/>
<polygon class="st0" points="355.5,101.4 352.3,104.7 355.4,107.6 358.5,104.6 "/>
<polygon class="st0" points="93.8,62.3 90.6,65.7 93.7,68.6 96.9,65.6 "/>
<path class="st0" d="M284,109.5c0.6-5.4,5.2-9.5,10.7-9.5c3.9,0,7.3,2,9.2,5.1c0.8-0.3,1.7-0.4,2.6-0.4c4.7,0,8.5,3.8,8.5,8.5
	c0,4.7-3.8,8.5-8.5,8.5h-21.1c-3.4,0-6.1-2.7-6.1-6.1C279.3,112.5,281.3,110.1,284,109.5z"/>
<g>
	<path class="st3" d="M222.4,56.9l1.1-2.7l7.3-2.6l0-6.1l-0.9-0.3l-6.5-2.1l-1.7-4.2l3.3-7l-4.3-4.3L220,28l-6.1,3.1l-4.2-1.7
		l-2.6-7.3l-6.1,0l-0.3,0.9l-2.1,6.5l-4.2,1.7l-7.1-3.3l-4.3,4.3l0.4,0.8l3.1,6.1l-1.7,4.2l-7.3,2.6l0,6.1l0.9,0.3l6.5,2.1l1.7,4.2
		l-3.3,7l4.3,4.3l0.8-0.4l6.1-3.1l4.2,1.7l2.6,7.3l6.1,0l0.3-0.9l2.1-6.5l2.6-1.1"/>
</g>
<g>
	<circle class="st4" cx="253" cy="97.5" r="3.7"/>
</g>
<g>
	<path class="st3" d="M176,77.1l1.8-4.2l-0.5-0.4l-3.8-3.3l0-3.4l4.3-3.9l-1.7-4.2l-0.7,0l-5.1,0.4l-2.4-2.4l0.3-5.8l-4.2-1.8
		l-0.4,0.5l-3.3,3.8l-3.4,0l-3.9-4.3l-4.2,1.7l0,0.7l0.4,5.1l-2.4,2.4l-5.8-0.3l-1.8,4.2l0.5,0.4l3.8,3.3l0,3.4l-4.3,3.9l1.7,4.2
		l0.7,0l5.1-0.4l2.4,2.4l-0.3,5.8l4.2,1.8l0.4-0.5l3.3-3.8l3.4,0l3.9,4.3l4.2-1.7l0-0.7l-0.4-5.1l2.4-2.4L176,77.1z M156.5,72.1
		c-2.6-1.1-3.9-4.1-2.8-6.8c1.1-2.6,4.1-3.9,6.8-2.8c2.6,1.1,3.9,4.1,2.8,6.8C162.2,72,159.2,73.2,156.5,72.1z"/>
</g>
<g>
	<path class="st3" d="M198.6,109.5l1.6-3.8l-0.5-0.4l-3.5-3.1l0-3.1l4-3.6l-1.6-3.9l-0.6,0l-4.7,0.3l-2.2-2.2l0.3-5.4l-3.8-1.6
		l-0.4,0.5l-3.1,3.6l-3.1,0l-3.6-4l-3.9,1.6l0,0.6l0.3,4.7l-2.2,2.2l-5.4-0.3l-1.6,3.8l0.5,0.4l3.6,3.1l0,3.1l-4,3.6l1.6,3.9l0.6,0
		l4.7-0.3l2.2,2.2l-0.3,5.4l3.8,1.6l0.4-0.5l3.1-3.5l3.1,0l3.6,4l3.9-1.6l0-0.6l-0.3-4.7l2.2-2.2L198.6,109.5z M180.6,104.9
		c-2.4-1-3.6-3.8-2.5-6.3c1-2.4,3.8-3.6,6.3-2.5c2.4,1,3.6,3.8,2.5,6.3C185.9,104.8,183.1,105.9,180.6,104.9z"/>
</g>
<circle class="st5" cx="270" cy="54.8" r="8.7"/>
<g>
	<path class="st5" d="M113.1,106.4l13.1-9.5c0.9-0.7,2.3,0.1,2,1.3l-3.4,16.9"/>
	<ellipse transform="matrix(0.5709 -0.821 0.821 0.5709 -40.0595 145.0836)" class="st5" cx="118.8" cy="110.9" rx="2.4" ry="7.3"/>
</g>
<g>
	<path class="st5" d="M124.5,20l-3.4,7c-0.3,0.6-0.3,1.4,0.1,2l4.4,6.4c0.4,0.6,1.1,0.9,1.8,0.9l7.8-0.6c0.7-0.1,1.3-0.5,1.7-1.1
		l3.4-7c0.3-0.6,0.3-1.4-0.1-2l-4.4-6.4c-0.4-0.6-1.1-0.9-1.8-0.9l-7.8,0.6C125.4,18.9,124.8,19.4,124.5,20z"/>
	<path class="st5" d="M125,19l5.4,7.3c0.2,0.3,0.6,0.5,1.1,0.5l9.3-0.2"/>
	<line class="st5" x1="130.9" y1="26.6" x2="126.2" y2="36.2"/>
</g>
<path class="st0" d="M327.3,12.9c-6.6,0-12.1,4.7-13.4,10.9c-0.4-0.1-0.9-0.1-1.4-0.1c-4.6,0-8.3,3.7-8.3,8.3c0,4.5,3.5,8.1,7.9,8.3
	v0h15.1c7.6,0,13.7-6.1,13.7-13.7S334.8,12.9,327.3,12.9z"/>
<path class="st4" d="M207.5,42.3l-1.9-7.2c4.1-0.1,8.1,1.4,11.2,4.5l0,0c4.2,4.2,5.5,10.3,3.7,15.6l1.6,1.5l36.6,36.6
	c2.5,2.5,2.5,6.5,0,8.9l-0.9,0.9c-2.5,2.5-6.5,2.5-8.9,0l-36.6-36.6l-1.5-1.6c-5.3,1.8-11.4,0.5-15.6-3.7l0,0
	c-3.1-3.1-4.6-7.2-4.5-11.2l7.3,2"/>
<circle class="st6" cx="204.2" cy="48.7" r="6.9"/>
</svg>
